<?xml version="1.0" encoding="utf-8"?>
<!-- Generator: Adobe Illustrator 21.0.2, SVG Export Plug-In . SVG Version: 6.00 Build 0)  -->
<svg version="1.1" id="svg2" xmlns="http://www.w3.org/2000/svg" xmlns:xlink="http://www.w3.org/1999/xlink" x="0px" y="0px"
	 viewBox="0 0 100 41.2" style="enable-background:new 0 0 100 41.2;" xml:space="preserve">
<style type="text/css">
	.st0{fill:#18e19c;}
</style>
<path id="MEC" class="st0" d="M78.4,1.4c-6.6,0-10.7,4.5-10.7,10.2v18.4c0,5.7,4.1,10.2,10.7,10.2c6.6,0,10-4.1,10-9.7v-4.5h-6.2
	v4.4c0,2.2-1.2,3.7-3.7,3.7c-2.5,0-3.8-1.5-3.8-3.6V11c0-2.1,1.3-3.6,3.8-3.6c2.5,0,3.7,1.5,3.7,3.7v4.4h6.2V11
	C88.4,5.5,84.9,1.4,78.4,1.4z M12.5,2.2v37h6.2V12.4l5.2,26.9h5.9l5.2-26.9v26.9h6.2v-37h-9.3l-5,25.6l-5-25.6L12.5,2.2z M46.2,2.2
	v37h17.7v-6.2H53.1v-9.7h9v-6.2h-9V8.4h10.8V2.2L46.2,2.2z"/>
</svg>
