<?xml version="1.0" encoding="utf-8"?>
<!-- Generator: Adobe Illustrator 21.0.2, SVG Export Plug-In . SVG Version: 6.00 Build 0)  -->
<svg version="1.1" id="Capa_1" xmlns="http://www.w3.org/2000/svg" xmlns:xlink="http://www.w3.org/1999/xlink" x="0px" y="0px"
	 viewBox="0 0 512 481" style="enable-background:new 0 0 512 481; fill: black" xml:space="preserve">
<g>
	<g>
		<path d="M256,354.7c-5.5,0-10,4.5-10,10s4.5,10,10,10c5.5,0,10-4.5,10-10S261.5,354.7,256,354.7z"/>
	</g>
</g>
<g>
	<g>
		<path d="M482,94.7h-20h-36v-25c0-9.4-3.6-18.1-10.2-24.8c-6.6-6.6-15.4-10.2-24.8-10.2c-6,0-11.7,1.5-16.7,4.2
			c-4.5-14.1-17.8-24.2-33.3-24.2c-9.8,0-18.6,4-25,10.5c-0.1-0.1-0.2-0.2-0.3-0.3c-6.6-6.6-15.4-10.2-24.8-10.2
			c-9.8,0-18.6,4-25,10.5c-6.4-6.5-15.2-10.5-25-10.5c-19.3,0-35,15.7-35,35v45H90c0,0,0,0,0,0c-0.3,0-0.7,0-1,0.1
			c-0.1,0-0.2,0-0.3,0c-0.2,0-0.5,0.1-0.7,0.1c-0.1,0-0.2,0.1-0.4,0.1c-0.2,0.1-0.5,0.1-0.7,0.2c-0.1,0-0.2,0.1-0.3,0.1
			c-0.3,0.1-0.5,0.2-0.8,0.3c-0.1,0-0.1,0-0.2,0.1l-0.2,0.1c0,0,0,0,0,0L5.5,135.8c-3.4,1.7-5.5,5.2-5.5,8.9s2.1,7.2,5.5,8.9
			l79.8,39.9c0,0,0,0,0,0l0.2,0.1c0.1,0,0.1,0,0.2,0.1c0.3,0.1,0.5,0.2,0.8,0.3c0.1,0,0.2,0.1,0.3,0.1c0.2,0.1,0.5,0.2,0.7,0.2
			c0.1,0,0.2,0.1,0.3,0.1c0.3,0.1,0.5,0.1,0.8,0.1c0.1,0,0.2,0,0.3,0c0.4,0,0.7,0.1,1.1,0.1h70.6c3.5,9.2,8.9,17.6,15.9,24.6
			l34.9,34.9c9.4,9.4,14.6,22,14.6,35.3v25.1h-10c-5.5,0-10,4.5-10,10v140c0,5.5,4.5,10,10,10h200c5.5,0,10-4.5,10-10v-140
			c0-5.5-4.5-10-10-10h-10v-27.6c0-12.4,2.8-24.8,8-36.1c8-17.1,12-32.7,12-47.8v-8.5h36h20c16.5,0,30-13.5,30-30v-40
			C512,108.2,498.5,94.7,482,94.7z M376,69.7c0-8.3,6.7-15,15-15c4,0,7.8,1.6,10.6,4.4c2.8,2.8,4.4,6.6,4.4,10.6v50
			c0,8.3-6.7,15-15,15s-15-6.7-15-15V69.7z M326,104.7v-55c0-8.3,6.7-15,15-15s15,6.7,15,15v20v50c0,8.3-6.7,15-15,15s-15-6.7-15-15
			V104.7z M276,49.7c0-8.3,6.7-15,15-15c4,0,7.8,1.6,10.6,4.4c2.8,2.8,4.4,6.6,4.4,10.6v45h-30V49.7z M226,49.7c0-8.3,6.7-15,15-15
			s15,6.7,15,15v45h-30V49.7z M87.5,172.3l-55.2-27.6l55.2-27.6C99.6,133.5,99.6,156,87.5,172.3z M156,164.7v5.1
			c0,1.6,0.1,3.2,0.2,4.9h-46.8c9.5-18.8,9.5-41.2,0-60H177c-2.5,2.5-4.9,5.1-7,8C161,134.8,156,149.7,156,164.7z M406,454.7H226
			v-120h10h160h10V454.7z M406,203.2c0,12-3.3,24.9-10.1,39.3c-6.5,13.9-9.9,29.3-9.9,44.6v27.6H246v-25.1
			c0-18.7-7.3-36.3-20.5-49.5l-34.9-34.9c-6.3-6.3-10.9-14.3-13.1-23c-1-4-1.6-8.2-1.6-12.4v-5.2c0-10.7,3.6-21.4,10-30
			c7.8-10.3,19-17.2,31.8-19.3c2.7-0.5,5.5-0.7,8.2-0.7h40h38.7c-1.8,6.9-5.3,13.1-10.5,18.3c-7.6,7.6-17.6,11.7-28.3,11.7h-30
			c-5.2,0-9.5,4-10,9.1c-0.4,5.2,3.1,9.8,8.2,10.7c16.5,2.9,30.9,12.1,40.5,25.9c0,0,0,0.1,0.1,0.1c7.2,10.4,11,22.5,11.1,35.2
			l0.1,19.1c0,5.5,4.5,9.9,10,9.9c0,0,0,0,0.1,0c5.5,0,10-4.5,9.9-10.1l-0.1-19.1c-0.1-10.7-2.2-21.1-6.2-30.8H406V203.2z
			 M452,174.7H288c-3.2-4-6.8-7.7-10.6-11.1c11.7-2.2,22.4-7.9,31-16.5c1.8-1.8,3.5-3.8,5.1-5.8c6.4,8.1,16.4,13.4,27.5,13.4
			c9.8,0,18.6-4,25-10.5c6.4,6.5,15.2,10.5,25,10.5c19.3,0,35-15.7,35-35v-5h26V174.7z M492,164.7c0,5.5-4.5,10-10,10h-10v-60h10
			c5.5,0,10,4.5,10,10V164.7z"/>
	</g>
</g>
<g>
	<g>
		<path d="M376,354.7h-80c-5.5,0-10,4.5-10,10s4.5,10,10,10h80c5.5,0,10-4.5,10-10S381.5,354.7,376,354.7z"/>
	</g>
</g>
</svg>
