<?xml version="1.0" encoding="iso-8859-1"?>
<!-- Generator: Adobe Illustrator 19.0.0, SVG Export Plug-In . SVG Version: 6.00 Build 0)  -->
<svg version="1.1" id="Capa_1" xmlns="http://www.w3.org/2000/svg" xmlns:xlink="http://www.w3.org/1999/xlink" x="0px" y="0px"
	 viewBox="0 0 512 512" style="enable-background:new 0 0 512 512;fill: #18e19c" xml:space="preserve">
<g>
	<g>
		<path d="M439.396,420.013c-4.2,0-7.604,3.405-7.604,7.604v24.508H168.831V208.623c0-4.199-3.404-7.604-7.604-7.604
			s-7.604,3.405-7.604,7.604v214.795c-9.401-9.409-22.387-15.237-36.707-15.237c-14.319,0-27.302,5.828-36.704,15.234V51.909
			c0-0.075-0.001-0.149-0.003-0.224c0.12-20.133,16.54-36.477,36.707-36.477c20.241,0,36.707,16.462,36.707,36.698v131.369
			c0,4.199,3.404,7.604,7.604,7.604s7.604-3.405,7.604-7.604V59.51h262.96v342.759c0,4.199,3.405,7.604,7.604,7.604
			c4.2,0,7.604-3.405,7.604-7.604V51.906c0-4.199-3.404-7.604-7.604-7.604H168.268C164.577,19.273,142.958,0,116.916,0
			C88.29,0,65,23.284,65,51.906c0,0.082,0.001,0.164,0.004,0.245v407.787c0,0.053-0.004,0.103-0.004,0.156
			C65,488.715,88.29,512,116.916,512H420.51c4.2,0,7.604-3.405,7.604-7.604s-3.404-7.604-7.604-7.604H116.916
			c-20.224,0-36.679-16.436-36.707-36.648c0-0.018,0.003-0.035,0.003-0.054v-0.152c0.085-20.168,16.516-36.551,36.704-36.551
			c20.241,0,36.707,16.467,36.707,36.707c0,4.199,3.404,7.604,7.604,7.604c0.812,0,1.592-0.13,2.326-0.365h275.843
			c4.2,0,7.604-3.405,7.604-7.604v-32.112C447,423.418,443.596,420.013,439.396,420.013z"/>
	</g>
</g>
<g>
	<g>
		<path d="M279.78,287.601h-93.848c-4.2,0-7.604,3.405-7.604,7.604s3.404,7.604,7.604,7.604h93.848c4.2,0,7.604-3.405,7.604-7.604
			S283.979,287.601,279.78,287.601z"/>
	</g>
</g>
<g>
	<g>
		<path d="M279.78,319.436h-93.848c-4.2,0-7.604,3.405-7.604,7.604s3.404,7.604,7.604,7.604h93.848c4.2,0,7.604-3.405,7.604-7.604
			S283.979,319.436,279.78,319.436z"/>
	</g>
</g>
<g>
	<g>
		<path d="M279.78,351.272h-93.848c-4.2,0-7.604,3.405-7.604,7.604s3.404,7.604,7.604,7.604h93.848c4.2,0,7.604-3.405,7.604-7.604
			S283.979,351.272,279.78,351.272z"/>
	</g>
</g>
<g>
	<g>
		<path d="M279.78,383.107h-93.848c-4.2,0-7.604,3.405-7.604,7.604s3.404,7.604,7.604,7.604h93.848c4.2,0,7.604-3.405,7.604-7.604
			S283.979,383.107,279.78,383.107z"/>
	</g>
</g>
<g>
	<g>
		<path d="M279.78,414.942h-93.848c-4.2,0-7.604,3.405-7.604,7.604s3.404,7.604,7.604,7.604h93.848c4.2,0,7.604-3.405,7.604-7.604
			S283.979,414.942,279.78,414.942z"/>
	</g>
</g>
<g>
	<g>
		<path d="M405.373,96.59h-93.848c-4.2,0-7.604,3.405-7.604,7.604c0,4.199,3.405,7.604,7.604,7.604h93.848
			c4.2,0,7.604-3.405,7.604-7.604C412.977,99.994,409.573,96.59,405.373,96.59z"/>
	</g>
</g>
<g>
	<g>
		<path d="M405.373,128.425h-93.848c-4.2,0-7.604,3.405-7.604,7.604c0,4.199,3.405,7.604,7.604,7.604h93.848
			c4.2,0,7.604-3.405,7.604-7.604C412.977,131.829,409.573,128.425,405.373,128.425z"/>
	</g>
</g>
<g>
	<g>
		<path d="M405.373,160.26h-93.848c-4.2,0-7.604,3.405-7.604,7.604s3.405,7.604,7.604,7.604h93.848c4.2,0,7.604-3.405,7.604-7.604
			S409.573,160.26,405.373,160.26z"/>
	</g>
</g>
<g>
	<g>
		<path d="M405.374,383.107h-93.848c-4.2,0-7.604,3.405-7.604,7.604s3.404,7.604,7.604,7.604h93.848c4.2,0,7.604-3.405,7.604-7.604
			S409.573,383.107,405.374,383.107z"/>
	</g>
</g>
<g>
	<g>
		<path d="M405.374,414.942h-93.848c-4.2,0-7.604,3.405-7.604,7.604s3.404,7.604,7.604,7.604h93.848c4.2,0,7.604-3.405,7.604-7.604
			S409.573,414.942,405.374,414.942z"/>
	</g>
</g>
<g>
	<g>
		<path d="M425.579,474.304H253.86c-4.2,0-7.604,3.405-7.604,7.604s3.404,7.604,7.604,7.604h171.719c4.2,0,7.604-3.405,7.604-7.604
			S429.779,474.304,425.579,474.304z"/>
	</g>
</g>
<g>
	<g>
		<path d="M228.512,474.305H116.915c-7.837,0-14.215-6.376-14.215-14.214c0-7.838,6.377-14.214,14.215-14.214
			c7.837,0,14.214,6.377,14.214,14.214c0,4.199,3.404,7.604,7.604,7.604s7.604-3.405,7.604-7.604
			c0-16.223-13.199-29.422-29.422-29.422c-16.224,0-29.423,13.2-29.423,29.422c0,16.223,13.199,29.422,29.423,29.422h111.597
			c4.2,0,7.604-3.405,7.604-7.604S232.712,474.305,228.512,474.305z"/>
	</g>
</g>
<g>
	<g>
		<path d="M279.78,96.59h-93.848c-4.2,0-7.604,3.405-7.604,7.604V263.37c0,4.199,3.404,7.604,7.604,7.604h93.848
			c4.2,0,7.604-3.405,7.604-7.604V104.194C287.384,99.994,283.98,96.59,279.78,96.59z M193.534,111.796h38.173v0.001
			c4.724,7.097,11.794,20.909,8.757,31.537c-0.941,3.295-8.493,8.183-26.679,11.114c-7.53,1.214-14.96,1.785-20.251,2.055V111.796z
			 M215.171,219.521l-2.04,36.246h-19.597v-84.03c5.699-0.271,13.951-0.878,22.494-2.245c6.213-0.994,11.673-2.243,16.405-3.749
			l2.571,46.601h-12.241C218.729,212.344,215.397,215.493,215.171,219.521z M272.176,255.766h-43.811l1.588-28.215h13.089
			c2.09,0,4.087-0.86,5.523-2.378c1.437-1.518,2.185-3.56,2.069-5.646l-3.369-61.036c4.022-3.112,6.618-6.763,7.823-10.979
			c2.763-9.664,1.254-20.775-4.479-33.025c-0.435-0.93-0.879-1.824-1.325-2.691h22.893V255.766z"/>
	</g>
</g>
<g>
	<g>
		<path d="M405.374,189.136h-93.848c-4.2,0-7.604,3.405-7.604,7.604v159.176c0,4.199,3.404,7.604,7.604,7.604h93.848
			c4.2,0,7.604-3.405,7.604-7.604V196.74C412.978,192.54,409.574,189.136,405.374,189.136z M397.77,348.312h-78.641v-20.027
			l26.675-30.602l32.982,29.199c3.145,2.783,7.951,2.491,10.734-0.653c2.784-3.145,2.492-7.951-0.653-10.734l-9.306-8.24
			l18.21-18.21V348.312z M397.77,267.539l-29.618,29.618l-18.005-15.94c-1.518-1.343-3.506-2.025-5.532-1.895
			c-2.023,0.131-3.908,1.064-5.241,2.591l-20.246,23.228V204.344h78.641V267.539z"/>
	</g>
</g>
<g>
	<g>
		<path d="M351.189,214.198c-15.933,0-28.895,12.962-28.895,28.895c0,15.933,12.962,28.895,28.895,28.895
			c15.933,0,28.895-12.962,28.895-28.895C380.084,227.16,367.122,214.198,351.189,214.198z M351.189,256.78
			c-7.547,0-13.687-6.14-13.687-13.687s6.14-13.687,13.687-13.687s13.687,6.14,13.687,13.687S358.736,256.78,351.189,256.78z"/>
	</g>
</g>
<g>
	<g>
		<path d="M228.197,177.732c-1.474-3.933-5.855-5.924-9.79-4.45l-10.815,4.055c-3.932,1.474-5.924,5.857-4.45,9.79
			c1.145,3.053,4.041,4.937,7.12,4.937c0.887,0,1.789-0.156,2.669-0.486l10.815-4.056
			C227.679,186.048,229.672,181.665,228.197,177.732z"/>
	</g>
</g>
<g>
</g>
<g>
</g>
<g>
</g>
<g>
</g>
<g>
</g>
<g>
</g>
<g>
</g>
<g>
</g>
<g>
</g>
<g>
</g>
<g>
</g>
<g>
</g>
<g>
</g>
<g>
</g>
<g>
</g>
</svg>
