<?xml version="1.0" encoding="utf-8"?>
<!-- Generator: Adobe Illustrator 21.0.2, SVG Export Plug-In . SVG Version: 6.00 Build 0)  -->
<svg version="1.1" id="Layer_1" xmlns="http://www.w3.org/2000/svg" xmlns:xlink="http://www.w3.org/1999/xlink" x="0px" y="0px"
	 viewBox="0 0 512 512" style="enable-background:new 0 0 512 512;fill: #18e19c" xml:space="preserve">
<path d="M376,216h-64c-4.4,0-8-3.6-8-8s3.6-8,8-8h64c4.4,0,8,3.6,8,8S380.4,216,376,216z"/>
<path d="M408,192H280c-4.4,0-8-3.6-8-8s3.6-8,8-8h128c4.4,0,8,3.6,8,8S412.4,192,408,192z"/>
<path d="M383.6,143.6c-2.1,0-4.1-0.8-5.7-2.3L349.7,113c-3.1-3.1-3.1-8.2,0-11.3s8.2-3.1,11.3,0l28.3,28.3c3.1,3.1,3.1,8.2,0,11.3
	C387.7,142.8,385.6,143.6,383.6,143.6z"/>
<path d="M344,88c-4.4,0-8-3.6-8-8V40c0-4.4,3.6-8,8-8s8,3.6,8,8v40C352,84.4,348.4,88,344,88z"/>
<path d="M344,120c-13.2,0-24-10.8-24-24s10.8-24,24-24s24,10.8,24,24S357.2,120,344,120z M344,88c-4.4,0-8,3.6-8,8s3.6,8,8,8
	s8-3.6,8-8S348.4,88,344,88z"/>
<path d="M344,160c-35.3,0-64-28.7-64-64s28.7-64,64-64s64,28.7,64,64S379.3,160,344,160z M344,48c-26.5,0-48,21.5-48,48
	s21.5,48,48,48s48-21.5,48-48S370.5,48,344,48z"/>
<path d="M504,256H184c-4.4,0-8-3.6-8-8v-48c0-4.4,3.6-8,8-8s8,3.6,8,8v40h304V16H192v152c0,4.4-3.6,8-8,8s-8-3.6-8-8V8
	c0-4.4,3.6-8,8-8h320c4.4,0,8,3.6,8,8v240C512,252.4,508.4,256,504,256z"/>
<path d="M40,256c-4.4,0-8-3.6-8-8v-40c0-4.4,3.6-8,8-8s8,3.6,8,8v40C48,252.4,44.4,256,40,256z"/>
<path d="M72,176H40c-4.4,0-8-3.6-8-8c0-4.4,3.6-8,8-8h32c4.4,0,8,3.6,8,8C80,172.4,76.4,176,72,176z"/>
<path d="M8,208c-4.4,0-8-3.6-8-8c0-22.1,17.9-40,40-40c4.4,0,8,3.6,8,8s-3.6,8-8,8c-13.2,0-24,10.8-24,24C16,204.4,12.4,208,8,208z"
	/>
<path d="M8,256c-4.4,0-8-3.6-8-8v-48c0-4.4,3.6-8,8-8s8,3.6,8,8v48C16,252.4,12.4,256,8,256z"/>
<path d="M152,256c-4.4,0-8-3.6-8-8v-48c0-4.4,3.6-8,8-8s8,3.6,8,8v48C160,252.4,156.4,256,152,256z"/>
<path d="M192,208h-40c-4.4,0-8-3.6-8-8s3.6-8,8-8h40c4.4,0,8,3.6,8,8S196.4,208,192,208z"/>
<path d="M248,152c-4.4,0-8-3.6-8-8c0-4.4-3.6-8-8-8s-8,3.6-8,8c0,4.4-3.6,8-8,8s-8-3.6-8-8c0-13.2,10.8-24,24-24s24,10.8,24,24
	C256,148.4,252.4,152,248,152z"/>
<path d="M192,208c-4.4,0-8-3.6-8-8s3.6-8,8-8c26.5,0,48-21.5,48-48c0-4.4,3.6-8,8-8s8,3.6,8,8C256,179.3,227.3,208,192,208z"/>
<path d="M192,176c-4.4,0-8-3.6-8-8s3.6-8,8-8c8.8,0,16-7.2,16-16c0-4.4,3.6-8,8-8s8,3.6,8,8C224,161.6,209.6,176,192,176z"/>
<path d="M488,344c-4.4,0-8-3.6-8-8c0-8.8-7.2-16-16-16c-4.4,0-8-3.6-8-8s3.6-8,8-8c17.7,0,32,14.4,32,32
	C496,340.4,492.4,344,488,344z"/>
<path d="M464,320c-4.4,0-8-3.6-8-8v-24c0-4.4,3.6-8,8-8s8,3.6,8,8v24C472,316.4,468.4,320,464,320z"/>
<path d="M376,344c-4.4,0-8-3.6-8-8c0-30.9,25.1-56,56-56c4.4,0,8,3.6,8,8s-3.6,8-8,8c-22.1,0-40,17.9-40,40
	C384,340.4,380.4,344,376,344z"/>
<path d="M464,296h-40c-4.4,0-8-3.6-8-8s3.6-8,8-8h40c4.4,0,8,3.6,8,8S468.4,296,464,296z"/>
<path d="M432,416c-44.4,0-62.4-34.9-63.2-36.4c-2-3.9-0.4-8.8,3.6-10.7c3.9-2,8.7-0.4,10.7,3.5c0.6,1.2,14.6,27.6,48.9,27.6
	c34.7,0,48.7-27.3,48.8-27.6c2-4,6.8-5.5,10.7-3.6c4,2,5.6,6.8,3.6,10.7C494.4,381.1,476.4,416,432,416z"/>
<path d="M376,384c-4.4,0-8-3.6-8-8v-40c0-4.4,3.6-8,8-8s8,3.6,8,8v40C384,380.4,380.4,384,376,384z"/>
<path d="M488,384c-4.4,0-8-3.6-8-8v-40c0-4.4,3.6-8,8-8s8,3.6,8,8v40C496,380.4,492.4,384,488,384z"/>
<path d="M360,488c-4.4,0-8-3.6-8-8c0-17.6,14.4-32,32-32c4.4,0,8,3.6,8,8c0,4.4-3.6,8-8,8c-8.8,0-16,7.2-16,16
	C368,484.4,364.4,488,360,488z"/>
<path d="M408,464h-24c-4.4,0-8-3.6-8-8c0-4.4,3.6-8,8-8h24c4.4,0,8,3.6,8,8C416,460.4,412.4,464,408,464z"/>
<path d="M360,512c-4.4,0-8-3.6-8-8v-24c0-4.4,3.6-8,8-8s8,3.6,8,8v24C368,508.4,364.4,512,360,512z"/>
<path d="M504,488c-4.4,0-8-3.6-8-8c0-8.8-7.2-16-16-16c-4.4,0-8-3.6-8-8c0-4.4,3.6-8,8-8c17.6,0,32,14.4,32,32
	C512,484.4,508.4,488,504,488z"/>
<path d="M480,464h-24c-4.4,0-8-3.6-8-8c0-4.4,3.6-8,8-8h24c4.4,0,8,3.6,8,8C488,460.4,484.4,464,480,464z"/>
<path d="M504,512c-4.4,0-8-3.6-8-8v-24c0-4.4,3.6-8,8-8s8,3.6,8,8v24C512,508.4,508.4,512,504,512z"/>
<path d="M504,512H360c-4.4,0-8-3.6-8-8s3.6-8,8-8h144c4.4,0,8,3.6,8,8S508.4,512,504,512z"/>
<path d="M408,464c-4.4,0-8-3.6-8-8v-29.5c0-4.4,3.6-8,8-8s8,3.6,8,8V456C416,460.4,412.4,464,408,464z"/>
<path d="M456,464c-4.4,0-8-3.6-8-8v-29.4c0-4.4,3.6-8,8-8s8,3.6,8,8V456C464,460.4,460.4,464,456,464z"/>
<path d="M432,439.9c-35.3,0-64-28.7-64-64c0-4.4,3.6-8,8-8s8,3.6,8,8c0,26.5,21.5,48,48,48s48-21.5,48-48c0-4.4,3.6-8,8-8s8,3.6,8,8
	C496,411.2,467.3,439.9,432,439.9z"/>
<path d="M456,464h-48c-4.4,0-8-3.6-8-8c0-4.4,3.6-8,8-8h48c4.4,0,8,3.6,8,8C464,460.4,460.4,464,456,464z"/>
<path d="M80,416c-44.4,0-62.4-34.9-63.2-36.4c-2-3.9-0.4-8.8,3.6-10.7c3.9-2,8.7-0.4,10.7,3.5C31.7,373.5,45.7,400,80,400
	c34.7,0,48.7-27.3,48.8-27.6c2-4,6.8-5.5,10.7-3.6c4,2,5.6,6.8,3.6,10.7C142.4,381.1,124.4,416,80,416z"/>
<path d="M24,384c-4.4,0-8-3.6-8-8v-32c0-4.4,3.6-8,8-8s8,3.6,8,8v32C32,380.4,28.4,384,24,384z"/>
<path d="M136,384c-4.4,0-8-3.6-8-8v-32c0-4.4,3.6-8,8-8s8,3.6,8,8v32C144,380.4,140.4,384,136,384z"/>
<path d="M8,488c-4.4,0-8-3.6-8-8c0-17.6,14.4-32,32-32c4.4,0,8,3.6,8,8c0,4.4-3.6,8-8,8c-8.8,0-16,7.2-16,16
	C16,484.4,12.4,488,8,488z"/>
<path d="M56,464H32c-4.4,0-8-3.6-8-8c0-4.4,3.6-8,8-8h24c4.4,0,8,3.6,8,8C64,460.4,60.4,464,56,464z"/>
<path d="M8,512c-4.4,0-8-3.6-8-8v-24c0-4.4,3.6-8,8-8s8,3.6,8,8v24C16,508.4,12.4,512,8,512z"/>
<path d="M152,488c-4.4,0-8-3.6-8-8c0-8.8-7.2-16-16-16c-4.4,0-8-3.6-8-8c0-4.4,3.6-8,8-8c17.6,0,32,14.4,32,32
	C160,484.4,156.4,488,152,488z"/>
<path d="M128,464h-24c-4.4,0-8-3.6-8-8c0-4.4,3.6-8,8-8h24c4.4,0,8,3.6,8,8C136,460.4,132.4,464,128,464z"/>
<path d="M152,512c-4.4,0-8-3.6-8-8v-24c0-4.4,3.6-8,8-8s8,3.6,8,8v24C160,508.4,156.4,512,152,512z"/>
<path d="M152,512H8c-4.4,0-8-3.6-8-8s3.6-8,8-8h144c4.4,0,8,3.6,8,8S156.4,512,152,512z"/>
<path d="M56,464c-4.4,0-8-3.6-8-8v-29.5c0-4.4,3.6-8,8-8s8,3.6,8,8V456C64,460.4,60.4,464,56,464z"/>
<path d="M104,464c-4.4,0-8-3.6-8-8v-29.4c0-4.4,3.6-8,8-8s8,3.6,8,8V456C112,460.4,108.4,464,104,464z"/>
<path d="M80,439.9c-35.3,0-64-28.7-64-64c0-4.4,3.6-8,8-8s8,3.6,8,8c0,26.5,21.5,48,48,48s48-21.5,48-48c0-4.4,3.6-8,8-8s8,3.6,8,8
	C144,411.2,115.3,439.9,80,439.9z"/>
<path d="M136,352c-4.4,0-8-3.6-8-8c0-26.5-21.5-48-48-48s-48,21.5-48,48c0,4.4-3.6,8-8,8s-8-3.6-8-8c0-35.3,28.7-64,64-64
	s64,28.7,64,64C144,348.4,140.4,352,136,352z"/>
<path d="M104,464H56c-4.4,0-8-3.6-8-8c0-4.4,3.6-8,8-8h48c4.4,0,8,3.6,8,8C112,460.4,108.4,464,104,464z"/>
<path d="M328,440c-4.4,0-8-3.6-8-8v-79.7c0-4.4,3.6-8,8-8s8,3.6,8,8V432C336,436.4,332.4,440,328,440z"/>
<path d="M328,440H184c-4.4,0-8-3.6-8-8s3.6-8,8-8h144c4.4,0,8,3.6,8,8S332.4,440,328,440z"/>
<path d="M184,440c-4.4,0-8-3.6-8-8v-79.7c0-4.4,3.6-8,8-8s8,3.6,8,8V432C192,436.4,188.4,440,184,440z"/>
<path d="M328,360.3c-4.4,0-8-3.6-8-8c0-35.3-28.7-64-64-64s-64,28.7-64,64c0,4.4-3.6,8-8,8s-8-3.6-8-8c0-44.1,35.9-80,80-80
	s80,35.9,80,80C336,356.8,332.4,360.3,328,360.3z"/>
<path d="M184,488c-4.4,0-8-3.6-8-8c0-17.6,14.4-32,32-32c4.4,0,8,3.6,8,8c0,4.4-3.6,8-8,8c-8.8,0-16,7.2-16,16
	C192,484.4,188.4,488,184,488z"/>
<path d="M232,464h-24c-4.4,0-8-3.6-8-8c0-4.4,3.6-8,8-8h24c4.4,0,8,3.6,8,8C240,460.4,236.4,464,232,464z"/>
<path d="M184,512c-4.4,0-8-3.6-8-8v-24c0-4.4,3.6-8,8-8s8,3.6,8,8v24C192,508.4,188.4,512,184,512z"/>
<path d="M328,488c-4.4,0-8-3.6-8-8c0-8.8-7.2-16-16-16c-4.4,0-8-3.6-8-8c0-4.4,3.6-8,8-8c17.6,0,32,14.4,32,32
	C336,484.4,332.4,488,328,488z"/>
<path d="M304,464h-24c-4.4,0-8-3.6-8-8c0-4.4,3.6-8,8-8h24c4.4,0,8,3.6,8,8C312,460.4,308.4,464,304,464z"/>
<path d="M328,512c-4.4,0-8-3.6-8-8v-24c0-4.4,3.6-8,8-8s8,3.6,8,8v24C336,508.4,332.4,512,328,512z"/>
<path d="M328,512H184c-4.4,0-8-3.6-8-8s3.6-8,8-8h144c4.4,0,8,3.6,8,8S332.4,512,328,512z"/>
<path d="M232,464c-4.4,0-8-3.6-8-8v-13.5c0-4.4,3.6-8,8-8s8,3.6,8,8V456C240,460.4,236.4,464,232,464z"/>
<path d="M280,464c-4.4,0-8-3.6-8-8v-13.4c0-4.4,3.6-8,8-8s8,3.6,8,8V456C288,460.4,284.4,464,280,464z"/>
<path d="M256,472c-0.8,0-1.7-0.1-2.5-0.4l-24-8c-4.2-1.4-6.5-5.9-5.1-10.1c1.4-4.2,5.9-6.5,10.1-5.1l24,8c4.2,1.4,6.5,5.9,5.1,10.1
	C262.5,469.8,259.4,472,256,472z"/>
<path d="M256,472c-3.4,0-6.5-2.1-7.6-5.5c-1.4-4.2,0.9-8.7,5.1-10.1l24-8c4.2-1.4,8.7,0.9,10.1,5.1c1.4,4.2-0.9,8.7-5.1,10.1l-24,8
	C257.7,471.8,256.8,472,256,472z"/>
<path d="M40,104c-4.4,0-8-3.6-8-8V73.1c0-4.4,3.6-8,8-8s8,3.6,8,8V96C48,100.4,44.4,104,40,104z"/>
<path d="M152,104c-4.4,0-8-3.6-8-8V68c0-4.4,3.6-8,8-8s8,3.6,8,8v28C160,100.4,156.4,104,152,104z"/>
<path d="M152,76c-4.4,0-8-3.6-8-8c0-28.7-23.3-52-52-52c-28.7,0-52,23.3-52,52c0,4.4-3.6,8-8,8s-8-3.6-8-8C24,30.5,54.5,0,92,0
	c37.5,0,68,30.5,68,68C160,72.4,156.4,76,152,76z"/>
<path d="M152,87c-2.4,0-4.8-1.1-6.4-3.1c-15.4-20.2-19.6-18.5-35.3-12.3c-15,6-37.7,15-79.6,8.3c-4.4-0.7-7.3-4.8-6.6-9.1
	c0.7-4.4,4.8-7.4,9.2-6.6c37.5,5.9,57-1.8,71.2-7.4c19.3-7.6,32.2-10.9,53.9,17.4c2.7,3.5,2,8.5-1.5,11.2
	C155.4,86.4,153.7,87,152,87z"/>
<path d="M120,67.8c-1.2,0-2.4-0.3-3.5-0.8c-4-1.9-5.6-6.7-3.6-10.7l16-32.6c1.9-4,6.7-5.6,10.7-3.7c4,1.9,5.6,6.7,3.6,10.7l-16,32.6
	C125.8,66.2,122.9,67.8,120,67.8z"/>
<path d="M192,176l-72,0c-4.4,0-8-3.6-8-8c0-4.4,3.6-8,8-8h0l72,0c4.4,0,8,3.6,8,8C200,172.4,196.4,176,192,176z"/>
<path d="M72,176c-4.4,0-8-3.6-8-8v-21.5c0-4.4,3.6-8,8-8s8,3.6,8,8V168C80,172.4,76.4,176,72,176z"/>
<path d="M120,176c-4.4,0-8-3.6-8-8v-21.4c0-4.4,3.6-8,8-8s8,3.6,8,8V168C128,172.4,124.4,176,120,176z"/>
<path d="M96,159.9c-35.3,0-64-28.7-64-64c0-4.4,3.6-8,8-8s8,3.6,8,8c0,26.5,21.5,48,48,48s48-21.5,48-48c0-4.4,3.6-8,8-8s8,3.6,8,8
	C160,131.2,131.3,159.9,96,159.9z"/>
<path d="M80,184c-2.9,0-5.8-1.6-7.2-4.4c-2-3.9-0.4-8.8,3.6-10.7l16-8c4-2,8.8-0.4,10.7,3.6c2,4,0.4,8.8-3.6,10.7l-16,8
	C82.4,183.7,81.2,184,80,184z"/>
<path d="M112,184c-2,0-4.1-0.8-5.7-2.3c-3.1-3.1-3.1-8.2,0-11.3l8-8c3.1-3.1,8.2-3.1,11.3,0s3.1,8.2,0,11.3l-8,8
	C116.1,183.2,114,184,112,184z"/>
<path d="M80,184c-2,0-4.1-0.8-5.7-2.3l-8-8c-3.1-3.1-3.1-8.2,0-11.3s8.2-3.1,11.3,0l8,8c3.1,3.1,3.1,8.2,0,11.3
	C84.1,183.2,82,184,80,184z"/>
<path d="M112,184c-1.2,0-2.4-0.3-3.6-0.8l-16-8c-4-2-5.6-6.8-3.6-10.7c2-3.9,6.8-5.5,10.7-3.6l16,8c3.9,2,5.6,6.8,3.6,10.7
	C117.8,182.3,114.9,184,112,184z"/>
<path d="M32,80c-4.4,0-8-3.6-8-8v-4c0-4.4,3.6-8,8-8s8,3.6,8,8v4C40,76.4,36.4,80,32,80z"/>
</svg>
