<?xml version="1.0" encoding="iso-8859-1"?>
<!-- Generator: Adobe Illustrator 19.0.0, SVG Export Plug-In . SVG Version: 6.00 Build 0)  -->
<svg version="1.1" id="Capa_1" xmlns="http://www.w3.org/2000/svg" xmlns:xlink="http://www.w3.org/1999/xlink" x="0px" y="0px"
	 viewBox="0 0 511.999 511.999" style="enable-background:new 0 0 511.999 511.999;fill: #18e19c" xml:space="preserve">
<g>
	<g>
		<path d="M501.001,201.683c-0.057-0.057-0.115-0.112-0.175-0.167c-18.637-17.167-40.326-9.207-54.411,3.964l-30.447,25.249
			c-18.624-18.472-43.554-29.277-69.816-30.157V98.283h24.128c18.898,0,34.273-15.376,34.273-34.273V26.901
			c0-4.143-3.357-7.5-7.5-7.5h-31.627c-18.898,0-34.274,15.376-34.274,34.275v4.446c-9.781-10.529-23.733-17.134-39.204-17.134
			H250.9c-4.143,0-7.5,3.357-7.5,7.5v30.924c0,29.515,24.012,53.526,53.526,53.526h34.226v68.209
			c-32.958,3.631-62.213,22.706-78.852,51.812c-8.353,0.75-13.989,2.144-20.7,4.698c-0.066,0.025-0.133,0.052-0.198,0.079
			l-50.829,21.02l-0.707-1.876c-3.292-8.735-13.022-13.135-21.756-9.843c-54.415,20.504-97.165,36.609-146.355,55.152
			c-9.383,3.528-14.12,13.982-10.583,23.369l50.979,135.284c3.521,9.35,13.948,14.13,23.371,10.58
			c11.935-4.497,131.215-49.448,146.356-55.153c8.733-3.289,13.145-13.019,9.851-21.754l-0.661-1.754
			c27.689-11.755,27.18-12.72,58.334-12.72c5.285,0,8.107-3.698,8.108-7.497c0.002-3.8-2.886-7.503-7.886-7.503
			c-34.34,0-35.862,1.766-63.851,13.672l-39.91-105.91l51.17-21.161c14.756-5.597,23.594-4.398,96.985-4.398
			c8.155,0,13.826,2.805,17.334,8.573c2.467,4.057,3.082,8.328,3.206,9.445c-0.221,2.95-1.968,16.626-15.425,18.911
			c-20.55,3.488-64.868,9.834-65.314,9.897c-4.1,0.587-6.948,4.387-6.362,8.487c0.582,4.07,4.346,6.946,8.487,6.362
			c0.446-0.064,44.956-6.438,65.699-9.958c19-3.226,26.048-19.425,27.594-29.993l86.822-71.99c0.087-0.072,0.173-0.146,0.257-0.223
			l0.344-0.319c8.633-8.072,21.514-15.301,33.913-3.968c14.025,13.898,1.144,30.439-1.809,33.854
			c-3.461,3.719-109.59,117.745-109.59,117.745c-0.055,0.059-0.108,0.119-0.162,0.18c-15.357,17.607-36.133,20.525-44.539,20.952
			c-3.305,0-6.438-0.005-9.443-0.013c-0.007,0-0.014,0-0.02,0c-4.134,0-7.489,3.346-7.5,7.48c-0.011,4.143,3.339,7.509,7.48,7.52
			c3.074,0.008,6.281,0.013,9.668,0.013c0.119,0,0.238-0.003,0.358-0.009c10.197-0.487,35.971-3.995,55.218-25.99
			c109.633-117.791,109.634-117.792,109.684-117.848c0.025-0.029,0.052-0.059,0.078-0.089
			C509.691,245.149,520.809,221.143,501.001,201.683z M346.152,80.827V53.676c0-10.627,8.646-19.274,19.273-19.274h24.128v29.606
			c0,10.628-8.646,19.273-19.273,19.273h-24.128V80.827z M330.475,117.939h-33.548c-21.243,0-38.526-17.283-38.526-38.526V55.989
			h33.547c21.244,0,38.527,17.283,38.527,38.526V117.939z M217.692,419.807c0.363,0.963-0.11,2.052-1.102,2.425l-33.371,12.577
			l-21.684-57.541c-1.461-3.877-5.787-5.834-9.663-4.374c-3.876,1.461-5.834,5.787-4.374,9.663l21.684,57.541
			c-25.149,9.478-88.578,33.382-98.945,37.288c-1.606,0.608-3.427-0.192-4.045-1.831L15.208,340.273
			c-0.609-1.618,0.199-3.429,1.832-4.043c32.152-12.121,76.524-28.841,98.945-37.289l19.16,50.843
			c1.462,3.877,5.792,5.833,9.663,4.374c3.876-1.461,5.834-5.787,4.374-9.663l-19.16-50.842l33.375-12.577
			c0.982-0.368,2.061,0.123,2.428,1.097C168.687,289.762,215.784,414.745,217.692,419.807z M366.312,271.909
			c-4.471-9.832-14.082-19.667-32.292-19.667c-29.946,0-49.896-0.212-63.405-0.044c16.63-22.91,43.199-36.69,72.058-36.69
			c23.072,0,45.154,8.97,61.692,24.844L366.312,271.909z"/>
	</g>
</g>
<g>
</g>
<g>
</g>
<g>
</g>
<g>
</g>
<g>
</g>
<g>
</g>
<g>
</g>
<g>
</g>
<g>
</g>
<g>
</g>
<g>
</g>
<g>
</g>
<g>
</g>
<g>
</g>
<g>
</g>
</svg>
