<?xml version="1.0" encoding="utf-8"?>
<!-- Generator: Adobe Illustrator 21.0.2, SVG Export Plug-In . SVG Version: 6.00 Build 0)  -->
<svg version="1.1" xmlns="http://www.w3.org/2000/svg" xmlns:xlink="http://www.w3.org/1999/xlink" x="0px" y="0px"
	 viewBox="0 0 149.7 125.3" style="enable-background:new 0 0 149.7 125.3;" xml:space="preserve">
<style type="text/css">
	.st0{fill:#FFFFFF;}
</style>
<g id="Layer_1">
	<g>
		<path class="st0" d="M79.3,72.5c-0.4,0-0.9,0.2-1.3,0.6v8.8c0.4,0.4,0.9,0.6,1.3,0.6c0.8,0,1.1-0.6,1.1-1.9v-6.2
			C80.4,73.1,80,72.5,79.3,72.5"/>
		<path class="st0" d="M88.9,72.5c-0.9,0-1.3,0.7-1.3,2v1.3h2.6v-1.3C90.2,73.1,89.7,72.5,88.9,72.5"/>
		<path class="st0" d="M94.3,62.6c-1.6-1.7-3.5-1.7-4.3-1.8c-6-0.4-15.1-0.4-15.1-0.4h0c0,0-9.1,0-15.1,0.4
			c-0.8,0.1-2.7,0.1-4.3,1.8c-1.3,1.3-1.7,4.3-1.7,4.3s-0.4,3.5-0.4,6.9V77c0,3.5,0.4,6.9,0.4,6.9s0.4,3,1.7,4.3
			c1.6,1.7,3.8,1.7,4.8,1.8c3.5,0.3,14.7,0.4,14.7,0.4s9.1,0,15.1-0.5c0.8-0.1,2.7-0.1,4.3-1.8C95.6,86.9,96,84,96,84
			s0.4-3.5,0.4-6.9v-3.3c0-3.5-0.4-6.9-0.4-6.9S95.6,63.9,94.3,62.6 M62.8,84.7h-2.9V68.1h-3.1v-2.7h9.1v2.7h-3.1V84.7z M73.1,84.7
			h-2.6v-1.6c-1,1.2-2,1.8-3,1.8c-0.8,0-1.4-0.3-1.7-1.1c-0.1-0.4-0.2-1.1-0.2-2.1V70.3h2.6v10.6c0,0.6,0,0.9,0,1
			c0.1,0.4,0.3,0.6,0.6,0.6c0.5,0,1.1-0.4,1.7-1.2v-11h2.6V84.7z M83,80.4c0,1.3-0.1,2.3-0.3,2.9c-0.3,1.1-1.1,1.6-2.1,1.6
			c-0.9,0-1.8-0.5-2.7-1.6v1.4h-2.6V65.4H78v6.3c0.8-1,1.7-1.6,2.7-1.6c1,0,1.7,0.6,2.1,1.6c0.2,0.6,0.3,1.5,0.3,2.9V80.4z M92.8,78
			h-5.2v2.6c0,1.3,0.4,2,1.3,2c0.6,0,1-0.4,1.2-1c0-0.1,0.1-0.7,0.1-1.8h2.7v0.4c0,0.8,0,1.4-0.1,1.7c-0.1,0.6-0.3,1.1-0.6,1.6
			c-0.7,1-1.8,1.6-3.2,1.6c-1.4,0-2.4-0.5-3.2-1.5c-0.6-0.7-0.8-1.9-0.8-3.4V75c0-1.5,0.3-2.7,0.8-3.4c0.8-1,1.8-1.5,3.1-1.5
			c1.3,0,2.4,0.5,3.1,1.5c0.5,0.7,0.8,1.9,0.8,3.4V78z"/>
		<path class="st0" d="M67.9,58.9v-7.9l3.5-11.6h-3l-2,7.7l-2.1-7.7h-3.1c0.6,1.8,1.3,3.6,1.9,5.5c0.9,2.7,1.5,4.8,1.8,6.2v7.9H67.9
			z"/>
		<path class="st0" d="M74.8,59.1c1.3,0,2.4-0.5,3.1-1.5c0.6-0.7,0.8-1.9,0.8-3.4V49c0-1.6-0.3-2.7-0.8-3.4c-0.7-1-1.8-1.5-3.1-1.5
			s-2.4,0.5-3.1,1.5c-0.6,0.7-0.8,1.9-0.8,3.4v5.1c0,1.6,0.3,2.7,0.8,3.4C72.5,58.6,73.5,59.1,74.8,59.1 M73.5,48.5
			c0-1.4,0.4-2,1.3-2c0.8,0,1.3,0.7,1.3,2v6.1c0,1.4-0.4,2-1.3,2c-0.9,0-1.3-0.7-1.3-2V48.5z"/>
		<path class="st0" d="M88.4,58.9V44.3h-2.6v11.1c-0.6,0.8-1.1,1.2-1.7,1.2c-0.4,0-0.6-0.2-0.6-0.6c0-0.1,0-0.4,0-1V44.3h-2.6v11.5
			c0,1,0.1,1.7,0.2,2.2c0.3,0.7,0.9,1.1,1.7,1.1c1,0,2-0.6,3-1.8v1.6H88.4z"/>
	</g>
	<g>
		<path class="st0" d="M75.4,114.4c-27.3,0-49.5-22.2-49.5-49.5s22.2-49.5,49.5-49.5S125,37.5,125,64.8S102.7,114.4,75.4,114.4z
			 M75.4,19.3c-25.1,0-45.5,20.4-45.5,45.5c0,25.1,20.4,45.5,45.5,45.5c25.1,0,45.5-20.4,45.5-45.5C121,39.7,100.5,19.3,75.4,19.3z"
			/>
	</g>
</g>
<g id="Layer_2">
</g>
</svg>
