<?xml version="1.0" encoding="utf-8"?>
<!-- Generator: Adobe Illustrator 21.0.2, SVG Export Plug-In . SVG Version: 6.00 Build 0)  -->
<svg version="1.1" id="Layer_1" xmlns="http://www.w3.org/2000/svg" xmlns:xlink="http://www.w3.org/1999/xlink" x="0px" y="0px"
	 viewBox="0 0 502.6 494" style="enable-background:new 0 0 502.6 494; fill: #18e19c" xml:space="preserve">
<path d="M371.8,34.7C367.7,14.9,350.2,0,329.3,0c-4.8,0-8.6,3.9-8.6,8.7c0,4.8,3.8,8.7,8.6,8.7c14.4,0,26,11.6,26,26
	c0,14.3-11.7,26-26,26c-4.8,0-8.6,3.9-8.6,8.7c0,4.8,3.8,8.7,8.6,8.7c20.9,0,38.4-14.9,42.5-34.7h113.5v78h-468V52h147.3
	c4.8,0,8.7-3.9,8.7-8.7c0-4.8-3.9-8.7-8.7-8.7h-15.7c3.6-10.1,13.1-17.3,24.4-17.3c14.3,0,26,11.6,26,26c0,14.3-11.6,26-26,26
	c-4.8,0-8.7,3.9-8.7,8.7c0,4.8,3.9,8.7,8.7,8.7c23.9,0,43.3-19.4,43.3-43.3c0-23.9-19.4-43.3-43.3-43.3c-20.9,0-38.4,14.9-42.4,34.7
	H0V494h502.6V34.7H371.8z M485.3,476.6h-468V147.3h468V476.6z"/>
<path d="M225.3,17.4c14.3,0,26,11.6,26,26c0,14.3-11.6,26-26,26c-4.8,0-8.7,3.9-8.7,8.7c0,4.8,3.9,8.7,8.7,8.7
	c23.9,0,43.3-19.4,43.3-43.3c0-23.9-19.5-43.3-43.3-43.3c-4.8,0-8.7,3.9-8.7,8.7C216.7,13.5,220.5,17.4,225.3,17.4"/>
<path d="M277.3,17.4c14.3,0,26,11.6,26,26c0,14.3-11.7,26-26,26c-4.8,0-8.7,3.9-8.7,8.7c0,4.8,3.8,8.7,8.7,8.7
	c23.9,0,43.3-19.4,43.3-43.3c0-23.9-19.5-43.3-43.3-43.3c-4.8,0-8.7,3.9-8.7,8.7C268.7,13.5,272.5,17.4,277.3,17.4"/>
<path d="M199.3,208c0,4.8-3.8,8.7-8.6,8.7c-4.8,0-8.7-3.9-8.7-8.7c0-4.8,3.8-8.7,8.7-8.7C195.5,199.3,199.3,203.2,199.3,208"/>
<path d="M260,208c0,4.8-3.9,8.7-8.7,8.7c-4.8,0-8.7-3.9-8.7-8.7c0-4.8,3.9-8.7,8.7-8.7C256.1,199.3,260,203.2,260,208"/>
<path d="M320.7,208c0,4.8-3.9,8.7-8.7,8.7c-4.8,0-8.7-3.9-8.7-8.7c0-4.8,3.9-8.7,8.7-8.7C316.8,199.3,320.7,203.2,320.7,208"/>
<path d="M381.3,208c0,4.8-3.8,8.7-8.7,8.7c-4.8,0-8.6-3.9-8.6-8.7c0-4.8,3.8-8.7,8.6-8.7C377.5,199.3,381.3,203.2,381.3,208"/>
<path d="M442,208c0,4.8-3.9,8.7-8.7,8.7c-4.8,0-8.7-3.9-8.7-8.7c0-4.8,3.9-8.7,8.7-8.7C438.1,199.3,442,203.2,442,208"/>
<path d="M78,277.3c0,4.8-3.8,8.6-8.7,8.6c-4.8,0-8.6-3.8-8.6-8.6c0-4.8,3.8-8.7,8.6-8.7C74.1,268.7,78,272.5,78,277.3"/>
<path d="M138.7,277.3c0,4.8-3.9,8.6-8.7,8.6c-4.8,0-8.7-3.8-8.7-8.6c0-4.8,3.9-8.7,8.7-8.7C134.8,268.7,138.7,272.5,138.7,277.3"/>
<path d="M199.3,277.3c0,4.8-3.8,8.6-8.6,8.6c-4.8,0-8.7-3.8-8.7-8.6c0-4.8,3.8-8.7,8.7-8.7C195.5,268.7,199.3,272.5,199.3,277.3"/>
<path d="M260,277.3c0,4.8-3.9,8.6-8.7,8.6c-4.8,0-8.7-3.8-8.7-8.6c0-4.8,3.9-8.7,8.7-8.7C256.1,268.7,260,272.5,260,277.3"/>
<path d="M320.7,277.3c0,4.8-3.9,8.6-8.7,8.6c-4.8,0-8.7-3.8-8.7-8.6c0-4.8,3.9-8.7,8.7-8.7C316.8,268.7,320.7,272.5,320.7,277.3"/>
<path d="M381.3,277.3c0,4.8-3.8,8.6-8.7,8.6c-4.8,0-8.6-3.8-8.6-8.6c0-4.8,3.8-8.7,8.6-8.7C377.5,268.7,381.3,272.5,381.3,277.3"/>
<path d="M442,277.3c0,4.8-3.9,8.6-8.7,8.6c-4.8,0-8.7-3.8-8.7-8.6c0-4.8,3.9-8.7,8.7-8.7C438.1,268.7,442,272.5,442,277.3"/>
<path d="M78,338c0,4.8-3.8,8.7-8.7,8.7c-4.8,0-8.6-3.9-8.6-8.7c0-4.8,3.8-8.7,8.6-8.7C74.1,329.3,78,333.2,78,338"/>
<path d="M138.7,338c0,4.8-3.9,8.7-8.7,8.7c-4.8,0-8.7-3.9-8.7-8.7c0-4.8,3.9-8.7,8.7-8.7C134.8,329.3,138.7,333.2,138.7,338"/>
<path d="M199.3,338c0,4.8-3.8,8.7-8.6,8.7c-4.8,0-8.7-3.9-8.7-8.7c0-4.8,3.8-8.7,8.7-8.7C195.5,329.3,199.3,333.2,199.3,338"/>
<path d="M260,338c0,4.8-3.9,8.7-8.7,8.7c-4.8,0-8.7-3.9-8.7-8.7c0-4.8,3.9-8.7,8.7-8.7C256.1,329.3,260,333.2,260,338"/>
<path d="M320.7,338c0,4.8-3.9,8.7-8.7,8.7c-4.8,0-8.7-3.9-8.7-8.7c0-4.8,3.9-8.7,8.7-8.7C316.8,329.3,320.7,333.2,320.7,338"/>
<path d="M381.3,338c0,4.8-3.8,8.7-8.7,8.7c-4.8,0-8.6-3.9-8.6-8.7c0-4.8,3.8-8.7,8.6-8.7C377.5,329.3,381.3,333.2,381.3,338"/>
<path d="M442,338c0,4.8-3.9,8.7-8.7,8.7c-4.8,0-8.7-3.9-8.7-8.7c0-4.8,3.9-8.7,8.7-8.7C438.1,329.3,442,333.2,442,338"/>
<path d="M78,407.3c0,4.8-3.8,8.6-8.7,8.6c-4.8,0-8.6-3.8-8.6-8.6c0-4.8,3.8-8.7,8.6-8.7C74.1,398.7,78,402.5,78,407.3"/>
<path d="M138.7,407.3c0,4.8-3.9,8.6-8.7,8.6c-4.8,0-8.7-3.8-8.7-8.6c0-4.8,3.9-8.7,8.7-8.7C134.8,398.7,138.7,402.5,138.7,407.3"/>
<path d="M199.3,407.3c0,4.8-3.8,8.6-8.6,8.6c-4.8,0-8.7-3.8-8.7-8.6c0-4.8,3.8-8.7,8.7-8.7C195.5,398.7,199.3,402.5,199.3,407.3"/>
<path d="M260,407.3c0,4.8-3.9,8.6-8.7,8.6c-4.8,0-8.7-3.8-8.7-8.6c0-4.8,3.9-8.7,8.7-8.7C256.1,398.7,260,402.5,260,407.3"/>
<path d="M320.7,407.3c0,4.8-3.9,8.6-8.7,8.6c-4.8,0-8.7-3.8-8.7-8.6c0-4.8,3.9-8.7,8.7-8.7C316.8,398.7,320.7,402.5,320.7,407.3"/>
</svg>
