<?xml version="1.0" encoding="utf-8"?>
<!-- Generator: Adobe Illustrator 21.0.2, SVG Export Plug-In . SVG Version: 6.00 Build 0)  -->
<svg version="1.1" id="Layer_1" xmlns="http://www.w3.org/2000/svg" xmlns:xlink="http://www.w3.org/1999/xlink" x="0px" y="0px"
	 viewBox="0 0 367.9 479.9" style="enable-background:new 0 0 367.9 479.9; fill: #18e19c" xml:space="preserve">
<g>
	<path d="M363.9,479.9H4c-2.2,0-4-1.8-4-4V36c0-2.2,1.8-4,4-4h24c2.2,0,4,1.8,4,4c0,2.2-1.8,4-4,4H8v431.9h351.9V40h-20
		c-2.2,0-4-1.8-4-4s1.8-4,4-4h24c2.2,0,4,1.8,4,4v439.9C367.9,478.1,366.1,479.9,363.9,479.9"/>
	<path d="M307.9,40h-24c-2.2,0-4-1.8-4-4c0-2.2,1.8-4,4-4h24c2.2,0,4,1.8,4,4C311.9,38.2,310.1,40,307.9,40"/>
	<path d="M251.9,40h-24c-2.2,0-4-1.8-4-4c0-2.2,1.8-4,4-4h24c2.2,0,4,1.8,4,4C255.9,38.2,254.2,40,251.9,40"/>
	<path d="M196,40h-24c-2.2,0-4-1.8-4-4c0-2.2,1.8-4,4-4h24c2.2,0,4,1.8,4,4C200,38.2,198.2,40,196,40"/>
	<path d="M140,40h-24c-2.2,0-4-1.8-4-4c0-2.2,1.8-4,4-4h24c2.2,0,4,1.8,4,4C144,38.2,142.2,40,140,40"/>
	<path d="M84,40H60c-2.2,0-4-1.8-4-4c0-2.2,1.8-4,4-4h24c2.2,0,4,1.8,4,4C88,38.2,86.2,40,84,40"/>
	<path d="M44,72c-6.6,0-12-5.4-12-12V12c0-6.6,5.4-12,12-12s12,5.4,12,12v48C56,66.6,50.6,72,44,72 M44,8c-2.2,0-4,1.8-4,4v48
		c0,2.2,1.8,4,4,4c2.2,0,4-1.8,4-4V12C48,9.8,46.2,8,44,8"/>
	<path d="M100,72c-6.6,0-12-5.4-12-12V12c0-6.6,5.4-12,12-12c6.6,0,12,5.4,12,12v48C112,66.6,106.6,72,100,72 M100,8
		c-2.2,0-4,1.8-4,4v48c0,2.2,1.8,4,4,4c2.2,0,4-1.8,4-4V12C104,9.8,102.2,8,100,8"/>
	<path d="M156,72c-6.6,0-12-5.4-12-12V12c0-6.6,5.4-12,12-12c6.6,0,12,5.4,12,12v48C168,66.6,162.6,72,156,72 M156,8
		c-2.2,0-4,1.8-4,4v48c0,2.2,1.8,4,4,4c2.2,0,4-1.8,4-4V12C160,9.8,158.2,8,156,8"/>
	<path d="M212,72c-6.6,0-12-5.4-12-12V12c0-6.6,5.4-12,12-12c6.6,0,12,5.4,12,12v48C224,66.6,218.6,72,212,72 M212,8
		c-2.2,0-4,1.8-4,4v48c0,2.2,1.8,4,4,4c2.2,0,4-1.8,4-4V12C216,9.8,214.2,8,212,8"/>
	<path d="M267.9,72c-6.6,0-12-5.4-12-12V12c0-6.6,5.4-12,12-12c6.6,0,12,5.4,12,12v48C279.9,66.6,274.6,72,267.9,72 M267.9,8
		c-2.2,0-4,1.8-4,4v48c0,2.2,1.8,4,4,4c2.2,0,4-1.8,4-4V12C271.9,9.8,270.2,8,267.9,8"/>
	<path d="M323.9,72c-6.6,0-12-5.4-12-12V12c0-6.6,5.4-12,12-12c6.6,0,12,5.4,12,12v48C335.9,66.6,330.5,72,323.9,72 M323.9,8
		c-2.2,0-4,1.8-4,4v48c0,2.2,1.8,4,4,4c2.2,0,4-1.8,4-4V12C327.9,9.8,326.1,8,323.9,8"/>
	<path d="M76,184c-1,0-2-0.4-2.8-1.2l-16-16c-1.6-1.6-1.6-4.1,0-5.7c1.6-1.6,4.1-1.6,5.7,0l16,16c1.6,1.6,1.6,4.1,0,5.7
		C78,183.6,77,184,76,184"/>
	<path d="M76,184c-1,0-2-0.4-2.8-1.2c-1.6-1.6-1.6-4.1,0-5.7l32-32c1.6-1.6,4.1-1.6,5.7,0c1.6,1.6,1.6,4.1,0,5.7l-32,32
		C78,183.6,77,184,76,184"/>
	<path d="M76,287.9c-1,0-2-0.4-2.8-1.2l-16-16c-1.6-1.6-1.6-4.1,0-5.7s4.1-1.6,5.7,0l16,16c1.6,1.6,1.6,4.1,0,5.7
		C78,287.6,77,287.9,76,287.9"/>
	<path d="M76,287.9c-1,0-2-0.4-2.8-1.2c-1.6-1.6-1.6-4.1,0-5.7l32-32c1.6-1.6,4.1-1.6,5.7,0c1.6,1.6,1.6,4.1,0,5.7l-32,32
		C78,287.6,77,287.9,76,287.9"/>
	<path d="M307.9,144H148c-2.2,0-4-1.8-4-4c0-2.2,1.8-4,4-4h160c2.2,0,4,1.8,4,4C311.9,142.2,310.1,144,307.9,144"/>
	<path d="M307.9,168H148c-2.2,0-4-1.8-4-4c0-2.2,1.8-4,4-4h160c2.2,0,4,1.8,4,4S310.1,168,307.9,168"/>
	<path d="M228,192h-80c-2.2,0-4-1.8-4-4c0-2.2,1.8-4,4-4h80c2.2,0,4,1.8,4,4C232,190.2,230.2,192,228,192"/>
	<path d="M307.9,247.9H148c-2.2,0-4-1.8-4-4s1.8-4,4-4h160c2.2,0,4,1.8,4,4S310.1,247.9,307.9,247.9"/>
	<path d="M307.9,271.9H148c-2.2,0-4-1.8-4-4c0-2.2,1.8-4,4-4h160c2.2,0,4,1.8,4,4C311.9,270.2,310.1,271.9,307.9,271.9"/>
	<path d="M228,295.9h-80c-2.2,0-4-1.8-4-4c0-2.2,1.8-4,4-4h80c2.2,0,4,1.8,4,4C232,294.2,230.2,295.9,228,295.9"/>
	<path d="M76,391.9c-1,0-2-0.4-2.8-1.2l-16-16c-1.6-1.6-1.6-4.1,0-5.7c1.6-1.6,4.1-1.6,5.7,0l16,16c1.6,1.6,1.6,4.1,0,5.7
		C78,391.5,77,391.9,76,391.9"/>
	<path d="M76,391.9c-1,0-2-0.4-2.8-1.2c-1.6-1.6-1.6-4.1,0-5.7l32-32c1.6-1.6,4.1-1.6,5.7,0c1.6,1.6,1.6,4.1,0,5.7l-32,32
		C78,391.5,77,391.9,76,391.9"/>
	<path d="M307.9,351.9H148c-2.2,0-4-1.8-4-4c0-2.2,1.8-4,4-4h160c2.2,0,4,1.8,4,4C311.9,350.1,310.1,351.9,307.9,351.9"/>
	<path d="M307.9,375.9H148c-2.2,0-4-1.8-4-4c0-2.2,1.8-4,4-4h160c2.2,0,4,1.8,4,4C311.9,374.1,310.1,375.9,307.9,375.9"/>
	<path d="M228,399.9h-80c-2.2,0-4-1.8-4-4c0-2.2,1.8-4,4-4h80c2.2,0,4,1.8,4,4C232,398.1,230.2,399.9,228,399.9"/>
</g>
</svg>
