<?xml version="1.0" encoding="utf-8"?>
<!-- Generator: Adobe Illustrator 21.0.2, SVG Export Plug-In . SVG Version: 6.00 Build 0)  -->
<svg version="1.1" xmlns="http://www.w3.org/2000/svg" xmlns:xlink="http://www.w3.org/1999/xlink" x="0px" y="0px"
	 viewBox="0 0 149.7 125.3" style="enable-background:new 0 0 149.7 125.3;" xml:space="preserve">
<style type="text/css">
	.st0{fill:#FFFFFF;}
	.st1{fill-rule:evenodd;clip-rule:evenodd;fill:#FFFFFF;}
</style>
<g id="Layer_1">
	<g>
		<path class="st0" d="M75.4,114.4c-27.3,0-49.5-22.2-49.5-49.5s22.2-49.5,49.5-49.5S125,37.5,125,64.8S102.7,114.4,75.4,114.4z
			 M75.4,19.3c-25.1,0-45.5,20.4-45.5,45.5c0,25.1,20.4,45.5,45.5,45.5c25.1,0,45.5-20.4,45.5-45.5C121,39.7,100.5,19.3,75.4,19.3z"
			/>
	</g>
</g>
<g id="Layer_2">
	<path class="st1" d="M77.1,90.3V64.8h8.4l1.3-8.4h-9.7v-4.2c0-2.2,0.7-4.3,3.9-4.3h6.3v-8.4h-9c-7.5,0-9.6,5-9.6,11.9v5.1h-5.2v8.4
		h5.2v25.5H77.1z"/>
</g>
</svg>
