<?xml version="1.0" encoding="utf-8"?>
<!-- Generator: Adobe Illustrator 21.0.2, SVG Export Plug-In . SVG Version: 6.00 Build 0)  -->
<svg version="1.1" id="Layer_1" xmlns="http://www.w3.org/2000/svg" xmlns:xlink="http://www.w3.org/1999/xlink" x="0px" y="0px"
	 viewBox="0 0 338.5 332" style="enable-background:new 0 0 338.5 332; fill: #18e19c" xml:space="preserve">
<g>
	<path d="M171.2,143.9c21.3,0,38.7-17.4,38.7-38.7c0-21.3-17.4-38.7-38.7-38.7s-38.7,17.4-38.7,38.7
		C132.5,126.5,149.8,143.9,171.2,143.9 M171.2,77.5c15.3,0,27.7,12.4,27.7,27.7c0,15.3-12.4,27.7-27.7,27.7s-27.7-12.4-27.7-27.7
		C143.5,89.9,155.9,77.5,171.2,77.5"/>
	<path d="M277.9,204.7h-39.6l16.9-24.3c31.8-42.4,27.2-112.2-9.9-149.3c-20-20-46.7-31.1-75-31.1c-28.3,0-55,11-75,31.1
		c-37.1,37.1-41.7,106.9-10,149.1l17,24.5H60.6L0,332h338.5L277.9,204.7z M94.2,173.8C65.4,135.4,69.5,72.4,103,38.9
		C121,20.9,144.8,11,170.2,11c25.4,0,49.3,9.9,67.2,27.9c33.5,33.5,37.6,96.5,8.7,135l-75.9,109.6l-54.6-78.8L94.2,173.8z
		 M67.6,215.8h42.2l60.4,87.2l60.4-87.2h40.3l50.1,105.1H17.5L67.6,215.8z"/>
</g>
</svg>
