<?xml version="1.0" encoding="utf-8"?>
<!-- Generator: Adobe Illustrator 21.0.2, SVG Export Plug-In . SVG Version: 6.00 Build 0)  -->
<svg version="1.1" id="Layer_1" xmlns="http://www.w3.org/2000/svg" xmlns:xlink="http://www.w3.org/1999/xlink" x="0px" y="0px"
	 viewBox="0 0 409.6 409.6" style="enable-background:new 0 0 409.6 409.6; fill: #18e19c" xml:space="preserve">
<g>
	<path d="M349.6,60C310.9,21.3,259.5,0,204.8,0C150.1,0,98.7,21.3,60,60C21.3,98.7,0,150.1,0,204.8c0,54.7,21.3,106.1,60,144.8
		c38.7,38.7,90.1,60,144.8,60c54.7,0,106.1-21.3,144.8-60c38.7-38.7,60-90.1,60-144.8C409.6,150.1,388.3,98.7,349.6,60 M340.6,340.6
		c-36.3,36.3-84.5,56.2-135.8,56.2c-51.3,0-99.5-20-135.8-56.2c-36.3-36.3-56.2-84.5-56.2-135.8c0-51.3,20-99.5,56.2-135.8
		s84.5-56.2,135.8-56.2c51.3,0,99.5,20,135.8,56.2c36.3,36.3,56.2,84.5,56.2,135.8C396.8,256.1,376.8,304.3,340.6,340.6"/>
	<path d="M38.4,204.8C38.4,113,113,38.4,204.8,38.4c33.1,0,65.1,9.7,92.4,28c2.9,2,6.9,1.2,8.9-1.8c2-2.9,1.2-6.9-1.8-8.9
		c-29.5-19.7-63.9-30.2-99.6-30.2c-47.9,0-92.9,18.6-126.7,52.5c-33.8,33.8-52.5,78.8-52.5,126.7c0,44.2,16.2,86.6,45.6,119.5
		c1.3,1.4,3,2.1,4.8,2.1c1.5,0,3-0.5,4.3-1.6c2.6-2.4,2.9-6.4,0.5-9C53.4,285.2,38.4,245.8,38.4,204.8"/>
	<path d="M353.8,105.2c-2-2.9-5.9-3.7-8.9-1.8c-2.9,2-3.7,5.9-1.8,8.9c18.3,27.4,28,59.3,28,92.4c0,91.8-74.6,166.4-166.4,166.4
		c-38.1,0-75.3-13.2-104.8-37.1c-2.7-2.2-6.8-1.8-9,0.9c-2.2,2.7-1.8,6.8,0.9,9c31.8,25.8,71.8,40,112.8,40
		c47.9,0,92.9-18.6,126.7-52.5c33.8-33.8,52.5-78.8,52.5-126.7C384,169.2,373.6,134.7,353.8,105.2"/>
	<path d="M315.7,80.8c4.3,3.8,8.5,8,12.3,12.2c1.3,1.4,3,2.1,4.7,2.1c1.5,0,3.1-0.5,4.3-1.7c2.6-2.4,2.8-6.4,0.4-9
		c-4.2-4.6-8.6-9-13.3-13.2c-2.6-2.4-6.7-2.1-9,0.5C312.9,74.4,313.1,78.4,315.7,80.8"/>
	<path d="M204.8,83.2c3.5,0,6.4-2.9,6.4-6.4V57.6c0-3.5-2.9-6.4-6.4-6.4c-3.5,0-6.4,2.9-6.4,6.4v19.2
		C198.4,80.3,201.3,83.2,204.8,83.2"/>
	<path d="M198.4,332.8V352c0,3.5,2.9,6.4,6.4,6.4c3.5,0,6.4-2.9,6.4-6.4v-19.2c0-3.5-2.9-6.4-6.4-6.4
		C201.3,326.4,198.4,329.3,198.4,332.8"/>
	<path d="M83.2,204.8c0-3.5-2.9-6.4-6.4-6.4H57.6c-3.5,0-6.4,2.9-6.4,6.4c0,3.5,2.9,6.4,6.4,6.4h19.2
		C80.3,211.2,83.2,208.3,83.2,204.8"/>
	<path d="M326.4,204.8c0,3.5,2.9,6.4,6.4,6.4H352c3.5,0,6.4-2.9,6.4-6.4c0-3.5-2.9-6.4-6.4-6.4h-19.2
		C329.3,198.4,326.4,201.3,326.4,204.8"/>
	<path d="M146.3,90.8l-9.6-16.6c-1.8-3.1-5.7-4.1-8.7-2.3c-3.1,1.8-4.1,5.7-2.3,8.7l9.6,16.6c1.2,2.1,3.3,3.2,5.5,3.2
		c1.1,0,2.2-0.3,3.2-0.9C147.1,97.7,148.1,93.8,146.3,90.8"/>
	<path d="M274.3,312.5c-1.8-3.1-5.7-4.1-8.7-2.3c-3.1,1.8-4.1,5.7-2.3,8.7l9.6,16.6c1.2,2.1,3.3,3.2,5.5,3.2c1.1,0,2.2-0.3,3.2-0.9
		c3.1-1.8,4.1-5.7,2.3-8.7L274.3,312.5z"/>
	<path d="M77.3,284.8c1.1,0,2.2-0.3,3.2-0.9l16.6-9.6c3.1-1.8,4.1-5.7,2.3-8.7c-1.8-3.1-5.7-4.1-8.7-2.3l-16.6,9.6
		c-3.1,1.8-4.1,5.7-2.3,8.7C73,283.7,75.1,284.8,77.3,284.8"/>
	<path d="M315.7,147.2c1.1,0,2.2-0.3,3.2-0.9l16.6-9.6c3.1-1.8,4.1-5.7,2.3-8.7c-1.8-3.1-5.7-4.1-8.7-2.3l-16.6,9.6
		c-3.1,1.8-4.1,5.7-2.3,8.7C311.3,146.1,313.4,147.2,315.7,147.2"/>
	<path d="M281.6,71.8c-3.1-1.8-7-0.7-8.7,2.3l-9.6,16.6c-1.8,3.1-0.7,7,2.3,8.7c1,0.6,2.1,0.9,3.2,0.9c2.2,0,4.4-1.1,5.6-3.2
		l9.6-16.6C285.7,77.5,284.7,73.5,281.6,71.8"/>
	<path d="M144,310.1c-3.1-1.8-7-0.7-8.7,2.3l-9.6,16.6c-1.8,3.1-0.7,7,2.3,8.7c1,0.6,2.1,0.9,3.2,0.9c2.2,0,4.4-1.1,5.5-3.2
		l9.6-16.6C148.1,315.8,147.1,311.9,144,310.1"/>
	<path d="M312.5,274.3l16.6,9.6c1,0.6,2.1,0.9,3.2,0.9c2.2,0,4.4-1.1,5.6-3.2c1.8-3.1,0.7-7-2.3-8.7l-16.6-9.6
		c-3.1-1.8-7-0.7-8.7,2.3C308.3,268.7,309.4,272.6,312.5,274.3"/>
	<path d="M97.1,135.3l-16.6-9.6c-3.1-1.8-7-0.7-8.7,2.3c-1.8,3.1-0.7,7,2.3,8.7l16.6,9.6c1,0.6,2.1,0.9,3.2,0.9
		c2.2,0,4.4-1.1,5.6-3.2C101.3,140.9,100.2,137,97.1,135.3"/>
	<path d="M249.4,288.4c1.1,0,2.2-0.3,3.2-0.9c3.1-1.8,4.1-5.7,2.3-8.7l-35.5-61.5c2.9-3.4,4.6-7.7,4.6-12.5
		c0-8.3-5.4-15.5-12.8-18.1v-84.3c0-3.5-2.9-6.4-6.4-6.4c-3.5,0-6.4,2.9-6.4,6.4v84.3c-7.4,2.6-12.8,9.8-12.8,18.1
		c0,10.6,8.6,19.2,19.2,19.2c1.2,0,2.4-0.1,3.5-0.3l35.5,61.5C245,287.2,247.1,288.4,249.4,288.4 M198.4,204.8
		c0-3.5,2.9-6.4,6.4-6.4c3.5,0,6.4,2.9,6.4,6.4c0,3.5-2.9,6.4-6.4,6.4C201.3,211.2,198.4,208.3,198.4,204.8"/>
</g>
</svg>
