<?xml version="1.0" encoding="utf-8"?>
<!-- Generator: Adobe Illustrator 21.0.2, SVG Export Plug-In . SVG Version: 6.00 Build 0)  -->
<svg version="1.1" id="Layer_1" xmlns="http://www.w3.org/2000/svg" xmlns:xlink="http://www.w3.org/1999/xlink" x="0px" y="0px"
	 viewBox="0 0 996 1328" style="enable-background:new 0 0 996 1328; fill: #18e19c" xml:space="preserve">
<style type="text/css">
	.st0{clip-path:url(#SVGID_2_);}
</style>
<g>
	<defs>
		<rect id="SVGID_1_" y="0" width="996" height="1328"/>
	</defs>
	<clipPath id="SVGID_2_">
		<use xlink:href="#SVGID_1_"  style="overflow:visible;"/>
	</clipPath>
	<path class="st0" d="M719.3,1328c-9.7,0-19.1-5.1-24.2-14.2l-122.6-220.7L432,1203c-8.2,6.5-19.6,7.7-29.1,3
		c-9.5-4.6-15.5-14.3-15.5-24.8V415.1c0-11.2,6.8-21.3,17.1-25.6c10.3-4.3,22.2-1.9,30.2,6l553.3,553.3c7.9,7.9,10.3,19.8,6,30.2
		c-4.3,10.3-14.4,17.1-25.6,17.1H794l115.5,207.9c3.6,6.6,4.4,14.4,2.2,21.6c-2.2,7.2-7.3,13.2-14.1,16.5l-166,83
		C727.7,1327.1,723.4,1328,719.3,1328 M581,1023.7c1.8,0,3.7,0.2,5.5,0.6c7.9,1.6,14.8,6.6,18.7,13.7l125.4,225.9l116.5-58.3
		L722.8,981.9c-4.8-8.6-4.6-19,0.4-27.4c5-8.5,14.1-13.7,23.8-13.7h154.5L442.6,481.9v642.5l121.3-94.8
		C568.8,1025.8,574.9,1023.7,581,1023.7"/>
	<path class="st0" d="M415,221.3c-15.3,0-27.7-12.4-27.7-27.7v-166C387.3,12.4,399.7,0,415,0c15.3,0,27.7,12.4,27.7,27.7v166
		C442.6,208.9,430.2,221.3,415,221.3"/>
	<path class="st0" d="M193.7,442.6h-166C12.4,442.6,0,430.2,0,415c0-15.3,12.4-27.7,27.7-27.7h166c15.3,0,27.7,12.4,27.7,27.7
		C221.3,430.2,208.9,442.6,193.7,442.6"/>
	<path class="st0" d="M802.3,442.6h-166c-15.3,0-27.7-12.4-27.7-27.7c0-15.3,12.4-27.7,27.7-27.7h166c15.3,0,27.7,12.4,27.7,27.7
		C829.9,430.2,817.6,442.6,802.3,442.6"/>
	<path class="st0" d="M258.5,286.1c-7.1,0-14.2-2.7-19.6-8.1L121.5,160.7c-10.8-10.8-10.8-28.3,0-39.1c10.8-10.8,28.3-10.8,39.1,0
		L278,238.9c10.8,10.8,10.8,28.3,0,39.1C272.7,283.5,265.6,286.1,258.5,286.1"/>
	<path class="st0" d="M141.1,716.5c-7.1,0-14.2-2.7-19.6-8.1c-10.8-10.8-10.8-28.3,0-39.1L238.9,552c10.8-10.8,28.3-10.8,39.1,0
		c10.8,10.8,10.8,28.3,0,39.1L160.6,708.4C155.3,713.8,148.2,716.5,141.1,716.5"/>
	<path class="st0" d="M571.4,286.1c-7.1,0-14.2-2.7-19.6-8.1c-10.8-10.8-10.8-28.3,0-39.1l117.4-117.4c10.8-10.8,28.4-10.8,39.2,0
		c10.8,10.8,10.8,28.3,0,39.1L591,278C585.6,283.5,578.5,286.1,571.4,286.1"/>
</g>
</svg>
