<?xml version="1.0" encoding="utf-8"?>
<!-- Generator: Adobe Illustrator 21.0.2, SVG Export Plug-In . SVG Version: 6.00 Build 0)  -->
<svg version="1.1" id="Layer_1" xmlns="http://www.w3.org/2000/svg" xmlns:xlink="http://www.w3.org/1999/xlink" x="0px" y="0px"
	 viewBox="0 0 2492.5 2493" style="enable-background:new 0 0 2492.5 2493; fill:#16e29d" xml:space="preserve">
<g>
	<path d="M658.1,893.6L658.1,893.6l0.1-0.1l58.7-58.7c48.6-48.7,48.6-127.6,0-176.4L481.8,423.3c-49.4-47-127-47-176.4,0L134,594.6
		C-144.3,872.9,24.9,1495,511.2,1981.2c327.5,327.5,716.6,511.2,1020.8,511.2c135,6.4,266.9-41.9,365.8-134l171.4-171.3
		c48.6-48.8,48.6-127.6,0-176.4L1834,1775.5c-48.8-48.6-127.6-48.6-176.4,0l-153.1,153.1c-8.8,9.2-21.4,13.7-34,12.1
		c-45.4-6.1-286.6-51-577.2-341.6c-290.6-290.6-335.5-531.8-341.6-577.2c-1.5-12.6,2.9-25.2,12.1-34L658.1,893.6z M423,482.1
		l235.2,235.2c16.2,16.2,16.2,42.5,0,58.8l-29.4,29.4l-294-294l0,0l29.4-29.4C380.7,466.5,406.5,466.5,423,482.1 M1775.2,1834.3
		l235.1,235.2c16.1,16.3,16.1,42.5,0,58.8l-29.4,29.4l-294-294l29.4-29.4C1732.7,1818.1,1759,1818.1,1775.2,1834.3 M469.4,1032.9
		c19.3,144.9,125.4,385.2,365.2,625c239.8,239.8,480.1,345.9,625,365.2c38.3,5,76.7-8.2,103.8-35.7l64.9-64.9l294,294l-83.2,83.2
		c-115.9,115.8-309.4,142.8-545,75.9c-244.1-69.3-501.2-230.2-724-453c-453.8-453.9-623-1023.1-377.2-1269l83.2-83.2l0,0l294,294
		l-64.9,64.9C477.5,956.2,464.3,994.6,469.4,1032.9"/>
	<path d="M2367.7,0H1120.6c-70.7,2-126.5,60.9-124.7,131.6v900.7c-1.8,70.7,54,129.6,124.7,131.6h41.6v249.4
		c0,33.6,20.2,64,51.3,76.9c31.1,12.9,66.9,5.7,90.6-18.1c1-1,1.9-2,2.8-3.1L1556,1164h811.7c70.7-2,126.5-60.9,124.7-131.6V131.6
		C2494.2,60.9,2438.5,2,2367.7,0 M2409.3,1032.4c1.7,24.8-16.8,46.4-41.6,48.5h-831.4c-0.7,0-1.3,0.4-1.9,0.4
		c-10.8,1.2-20.9,6-28.7,13.6c-0.5,0.5-1.1,0.7-1.6,1.3l-258.8,316.9v-290.7c0-11-4.4-21.6-12.2-29.4s-18.4-12.2-29.4-12.2h-83.1
		c-24.8-2.1-43.3-23.7-41.6-48.5V131.6c-1.7-24.8,16.8-46.4,41.6-48.5h1247.2c24.8,2.1,43.3,23.7,41.6,48.5V1032.4z"/>
	<path d="M2233,371.1h-998.9c-6.6,0-12-5.4-12-12v-70.5c0-6.6,5.4-12,12-12H2233c6.6,0,12,5.4,12,12v70.5
		C2245,365.7,2239.6,371.1,2233,371.1z"/>
	<path d="M2233,597.1h-998.9c-6.6,0-12-5.4-12-12v-70.5c0-6.6,5.4-12,12-12H2233c6.6,0,12,5.4,12,12v70.5
		C2245,591.7,2239.6,597.1,2233,597.1z"/>
	<path d="M2233,837.1h-998.9c-6.6,0-12-5.4-12-12v-70.5c0-6.6,5.4-12,12-12H2233c6.6,0,12,5.4,12,12v70.5
		C2245,831.7,2239.6,837.1,2233,837.1z"/>
</g>
</svg>
