<?xml version="1.0" encoding="utf-8"?>
<!-- Generator: Adobe Illustrator 21.0.2, SVG Export Plug-In . SVG Version: 6.00 Build 0)  -->
<svg version="1.1" id="Layer_1" xmlns="http://www.w3.org/2000/svg" xmlns:xlink="http://www.w3.org/1999/xlink" x="0px" y="0px"
	 viewBox="0 0 177 177" style="enable-background:new 0 0 177 177;" xml:space="preserve">
<style type="text/css">
	.st0{fill:#FFFFFF;}
</style>
<path class="st0" d="M155.9,114.7h-4.7l6.6-7.6h9.8L155.9,114.7L155.9,114.7z M156.4,122.4h-15.9v-5.9H160c8.7,0,13.6,2.8,14.6,8.4
	c0.4,2.3,0.2,4.9,0.2,7.2l0,0v4.4v8.7c-3.9,0-7.8,0-11.7,0h-13.7c-3.4,0-6.2-0.8-8.2-2.3s-3-3.6-3-6.2c0-3.5,1.4-5.9,4.2-7.4
	c2.2-1.1,5.6-1.6,10.1-1.6h12.6c0-2-0.6-3.4-1.9-4.2C162,122.8,159.7,122.4,156.4,122.4L156.4,122.4z M153.2,139.5h11.9v-6h-11.2
	c-3.8,0-5.7,1-5.7,3c0,1.3,0.6,2.2,1.8,2.7C150.6,139.4,151.7,139.5,153.2,139.5L153.2,139.5z M126.9,116.5h9.5v15.6l0,0v13.1
	c-6.9,0-10,0-17.9,0c-5.3,0-9.1-0.8-11.4-2.5s-3.5-4.4-3.5-8v-18.2h9.4v17.7c0,1.6,0.3,2.8,0.9,3.4c0.9,0.9,2.6,1.4,5.2,1.4h7.7
	v-22.5H126.9z M82.2,122.4H66.3v-5.9h19.4c9.8,0,14.8,3.6,14.8,10.7c0,6,0,12,0,17.9c-8.5,0-16.9,0-25.4,0c-3.4,0-6.2-0.8-8.2-2.3
	s-3-3.6-3-6.2c0-3.5,1.4-5.9,4.2-7.4c2.2-1.1,5.6-1.6,10.1-1.6h12.6c0-2-0.6-3.4-1.9-4.2C87.8,122.8,85.5,122.4,82.2,122.4
	L82.2,122.4z M79,139.5h11.9v-6H79.7c-3.8,0-5.7,1-5.7,3c0,1.3,0.6,2.2,1.8,2.7C76.3,139.4,77.4,139.5,79,139.5L79,139.5z
	 M12.6,145.2H0.9v-47h16.9l13.8,36l13.8-36h16.8v31.3c0,0,0,0,0-0.1v15.8h-9.1l0,0h-2.2l0.9-36.5l-13.9,36.5H25.7l-14.3-36.9
	L12.6,145.2L12.6,145.2z"/>
<path class="st0" d="M69.8,100.7v3.3H75c0.8,0,1.4-0.1,1.8-0.4s0.6-0.7,0.6-1.2c0-0.6-0.2-1-0.6-1.2c-0.4-0.3-1-0.4-1.8-0.4
	L69.8,100.7L69.8,100.7z M75,109.8c0.8,0,1.4-0.1,1.8-0.4s0.5-0.7,0.5-1.2c0-0.6-0.2-1-0.6-1.3s-1-0.4-1.8-0.4h-5.2v3.3H75L75,109.8
	z M75.5,112.3h-9.2V98.2h8.6c1.1,0,2,0.1,2.7,0.2s1.2,0.3,1.7,0.5c0.6,0.3,1.1,0.7,1.4,1.3c0.3,0.5,0.5,1.1,0.5,1.8
	c0,0.8-0.2,1.5-0.6,2s-1,1-1.9,1.4c0.9,0.3,1.5,0.7,1.9,1.2s0.6,1.2,0.6,2c0,1.3-0.5,2.3-1.4,2.9C78.9,112,77.5,112.3,75.5,112.3
	L75.5,112.3z"/>
<path class="st0" d="M86.9,110.2H91v-2.1h-3.8c-0.8,0-1.3,0.1-1.6,0.3c-0.3,0.2-0.4,0.5-0.4,0.9s0.1,0.6,0.3,0.8
	C85.7,110.1,86.2,110.2,86.9,110.2L86.9,110.2z M82.6,101.9h6.7c1.7,0,2.9,0.3,3.8,1s1.3,1.6,1.3,2.9v6.5h-8.7
	c-1.2,0-2.2-0.3-2.8-0.8c-0.7-0.5-1-1.3-1-2.2c0-1.2,0.4-2,1.1-2.5c0.8-0.5,2-0.8,3.8-0.8h4.3v-0.3c0-0.6-0.2-1-0.6-1.3
	c-0.4-0.2-1.2-0.4-2.3-0.4h-5.4v-2.1C82.8,101.9,82.6,101.9,82.6,101.9z"/>
<path class="st0" d="M95.3,101.9h5.5c1.3,0,2.2,0.2,2.7,0.6s0.8,1.1,0.8,2v1.7h-3.1v-1.3c0-0.4-0.1-0.7-0.3-0.8
	c-0.2-0.1-0.6-0.2-1.2-0.2h-1.1v8.3h-3.3V101.9L95.3,101.9z"/>
<path class="st0" d="M109.3,110.2h4.1v-2.1h-3.8c-0.8,0-1.3,0.1-1.6,0.3c-0.3,0.2-0.4,0.5-0.4,0.9s0.1,0.6,0.3,0.8
	C108.1,110.1,108.6,110.2,109.3,110.2L109.3,110.2z M105,101.9h6.7c1.7,0,2.9,0.3,3.8,1s1.3,1.6,1.3,2.9v6.5H108
	c-1.2,0-2.2-0.3-2.8-0.8c-0.7-0.5-1-1.3-1-2.2c0-1.2,0.4-2,1.1-2.5c0.8-0.5,2-0.8,3.8-0.8h4.3v-0.3c0-0.6-0.2-1-0.6-1.3
	c-0.4-0.2-1.2-0.4-2.3-0.4H105V101.9L105,101.9z"/>
<path class="st0" d="M120.8,107.1c0,1,0.3,1.7,0.8,2.3c0.5,0.5,1.3,0.8,2.3,0.8s1.7-0.3,2.3-0.8s0.8-1.3,0.8-2.3s-0.3-1.7-0.8-2.3
	c-0.6-0.5-1.3-0.8-2.3-0.8s-1.7,0.3-2.3,0.8C121.1,105.4,120.8,106.1,120.8,107.1L120.8,107.1z M130.5,107.1c0,1.6-0.6,2.9-1.8,3.9
	s-2.8,1.5-4.8,1.5s-3.6-0.5-4.8-1.5s-1.8-2.3-1.8-3.9s0.6-2.9,1.8-3.9s2.8-1.5,4.8-1.5s3.6,0.5,4.7,1.5
	C129.9,104.2,130.5,105.5,130.5,107.1L130.5,107.1z"/>
<path class="st0" d="M140.3,109.1v-3.8H139c-0.9,0-1.5,0.2-1.9,0.4c-0.4,0.3-0.5,0.8-0.5,1.5s0.2,1.2,0.5,1.4
	c0.3,0.3,0.9,0.4,1.7,0.4L140.3,109.1L140.3,109.1z M142.5,110.6h-4.2c-1.3,0-2.2-0.3-2.9-0.9s-1.1-1.4-1.1-2.5
	c0-0.4,0.1-0.8,0.2-1.2c0.1-0.4,0.4-0.7,0.7-1c0.4-0.4,0.8-0.6,1.3-0.8c0.5-0.2,1.2-0.2,2-0.2h1.9v-2.4h2.2L142.5,110.6L142.5,110.6
	z M147,110.6c-1.4,0-2.4-0.3-3.1-0.8c-0.7-0.6-1-1.4-1-2.5s0.4-1.9,1-2.5c0.7-0.6,1.7-0.8,3.1-0.8h3.2v1.4h-2.9
	c-0.8,0-1.3,0.1-1.6,0.3c-0.3,0.2-0.4,0.5-0.4,1h4.9v1.4h-4.9c0,0.5,0.2,0.8,0.4,1s0.8,0.3,1.6,0.3h2.9v1.4H147V110.6z"/>
<polygon class="st0" points="105,98.2 116.4,98.2 116.4,100.4 105,100.4 "/>
<g>
	<g>
		<path id="SVGID_1_" class="st0" d="M80.4,5.2c-29.5,9.7-43.9,65.1-11.9,79.1c-9.6,3.2-18.7,1.1-26.9-8.8
			C29.8,57.8,34.3,30,52.3,12.8C60.8,5.5,70,2.3,80.4,5.2L80.4,5.2z"/>
	</g>
</g>
<g>
	<g>
		<path id="SVGID_3_" class="st0" d="M73.2,1c14.4-0.4,23.2,7.6,26.4,23.7h15.8C112.2,14.2,107.8,5,97.2,1.8
			C91.4,0.3,79.5,1.2,73.2,1L73.2,1z"/>
	</g>
</g>
<g>
	<g>
		<path id="SVGID_5_" class="st0" d="M58.6,90.1c9.9,0.1,24.4-8.3,32.1-19.5h15.6c-7.9,9.6-15.5,15.5-26.1,18.7
			C74.4,90.7,64.9,89.8,58.6,90.1L58.6,90.1z"/>
	</g>
</g>
<path class="st0" d="M101,62.5c9.8-5.9,12.7-20.3-0.4-28h37c4.5,9.5,3.8,18.8,0.2,28.1h-8.6c2.9-6.6,4.2-13,2.8-19.3h-3.3
	c1.3,6.5,0.1,12.9-3.2,19.1l-9.1,0.1c4-6.2,6.1-12.5,4.2-19.3h-3.5c2,7.2-0.3,13.4-4.6,19.1L101,62.5L101,62.5z"/>
<path class="st0" d="M4.8,162.3c-0.6,0-1.1-0.1-1.6-0.3s-0.9-0.5-1.2-0.9c-0.4-0.4-0.6-0.9-0.8-1.4c-0.2-0.6-0.3-1.2-0.3-2
	c0-0.7,0.1-1.4,0.3-1.9s0.5-1,0.8-1.4c0.4-0.4,0.8-0.7,1.2-0.9c0.5-0.2,1-0.3,1.6-0.3c0.3,0,0.6,0,0.8,0.1c0.3,0,0.5,0.1,0.7,0.2
	s0.4,0.1,0.6,0.2c0.2,0.1,0.4,0.2,0.6,0.3v1.4H7.4c-0.1-0.1-0.2-0.2-0.4-0.3c-0.2-0.1-0.4-0.3-0.6-0.4c-0.2-0.1-0.5-0.2-0.7-0.3
	c-0.3-0.1-0.6-0.1-0.9-0.1c-0.4,0-0.7,0.1-1.1,0.2c-0.3,0.2-0.6,0.4-0.9,0.7c-0.2,0.3-0.4,0.7-0.6,1.1c-0.1,0.5-0.2,1-0.2,1.5
	c0,0.6,0.1,1.1,0.2,1.6c0.1,0.4,0.3,0.8,0.6,1.1c0.2,0.3,0.5,0.5,0.9,0.7c0.3,0.1,0.7,0.2,1.1,0.2c0.3,0,0.7,0,0.9-0.1
	c0.3-0.1,0.5-0.2,0.8-0.3c0.2-0.1,0.4-0.2,0.6-0.4c0.2-0.1,0.3-0.2,0.4-0.3h0.1v1.4c-0.2,0.1-0.4,0.2-0.5,0.3
	c-0.2,0.1-0.4,0.2-0.6,0.2c-0.3,0.1-0.5,0.1-0.7,0.2C5.4,162.3,5.1,162.3,4.8,162.3L4.8,162.3z M10.7,162.2v-8.8h5.5v1h-4.3v2.4h4v1
	h-4v3.3h4.3v1h-5.5C10.7,162.1,10.7,162.2,10.7,162.2z M25.9,162.2h-1.3l-3.9-7.6v7.6h-1.1v-8.8h1.7l3.5,7v-7h1.1L25.9,162.2
	L25.9,162.2z M31.8,162.2v-7.7h-3v-1h7.1v1h-3v7.7H31.8L31.8,162.2z M45.7,162.2h-1.5l-2.8-3.5h-1.3v3.5h-1.2v-8.8h2.3
	c0.5,0,0.9,0,1.3,0.1c0.3,0.1,0.7,0.2,1,0.4s0.5,0.5,0.7,0.8s0.3,0.7,0.3,1.2c0,0.6-0.2,1.2-0.5,1.6s-0.8,0.8-1.3,1L45.7,162.2
	L45.7,162.2z M43.2,155.9c0-0.3,0-0.5-0.1-0.7s-0.2-0.4-0.4-0.5s-0.4-0.2-0.6-0.2s-0.5-0.1-0.8-0.1h-1.2v3.3h1c0.3,0,0.6,0,0.9-0.1
	s0.5-0.2,0.7-0.4s0.3-0.4,0.4-0.6C43.1,156.4,43.2,156.2,43.2,155.9L43.2,155.9z M54.7,154.4c0.3,0.4,0.6,0.9,0.8,1.4
	c0.2,0.6,0.3,1.2,0.3,2c0,0.7-0.1,1.4-0.3,1.9c-0.2,0.6-0.4,1.1-0.8,1.4c-0.4,0.4-0.8,0.7-1.3,0.9s-1,0.3-1.6,0.3s-1.1-0.1-1.6-0.3
	s-0.9-0.5-1.2-0.9s-0.6-0.9-0.8-1.4c-0.2-0.6-0.3-1.2-0.3-1.9s0.1-1.4,0.3-1.9c0.2-0.6,0.4-1,0.8-1.4c0.3-0.4,0.7-0.7,1.2-0.9
	s1-0.3,1.6-0.3s1.1,0.1,1.6,0.3C54,153.7,54.4,154,54.7,154.4L54.7,154.4z M54.5,157.8c0-0.6-0.1-1.1-0.2-1.5s-0.3-0.8-0.5-1.1
	s-0.5-0.5-0.8-0.7s-0.7-0.2-1.1-0.2s-0.8,0.1-1.1,0.2c-0.3,0.1-0.6,0.4-0.8,0.7s-0.4,0.7-0.5,1.1c-0.1,0.5-0.2,1-0.2,1.5
	c0,1.2,0.2,2,0.7,2.6s1.1,0.9,1.9,0.9s1.5-0.3,1.9-0.9C54.3,159.8,54.5,159,54.5,157.8L54.5,157.8z M66,162.4c-0.5,0-1-0.1-1.4-0.2
	s-0.7-0.3-1-0.6s-0.5-0.7-0.6-1.1s-0.2-1-0.2-1.6v-5.5H64v5.5c0,0.4,0,0.7,0.1,1s0.2,0.5,0.3,0.7c0.2,0.2,0.4,0.4,0.6,0.5
	c0.3,0.1,0.6,0.2,1,0.2s0.7-0.1,1-0.2s0.5-0.3,0.7-0.5c0.1-0.2,0.2-0.5,0.3-0.7c0.1-0.3,0.1-0.6,0.1-1v-5.5h1.2v5.5
	c0,0.6-0.1,1.1-0.2,1.6c-0.1,0.4-0.3,0.8-0.7,1.1c-0.3,0.3-0.6,0.5-1,0.6S66.5,162.4,66,162.4L66,162.4z M79.2,162.2h-1.3l-3.9-7.6
	v7.6h-1.1v-8.8h1.7l3.5,7v-7h1.1L79.2,162.2L79.2,162.2z M86.2,162.2h-3.4v-0.9h1.1v-7h-1.1v-0.9h3.4v0.9h-1.1v7h1.1V162.2
	L86.2,162.2z M96.1,153.4l-3,8.8h-1.3l-3-8.8h1.3l2.4,7.3l2.4-7.3H96.1L96.1,153.4z M99,162.2v-8.8h5.5v1h-4.3v2.4h4v1h-4v3.3h4.3v1
	H99V162.2z M114.7,162.2h-1.5l-2.8-3.5h-1.3v3.5h-1.2v-8.8h2.3c0.5,0,0.9,0,1.3,0.1c0.3,0.1,0.7,0.2,1,0.4s0.5,0.5,0.7,0.8
	s0.3,0.7,0.3,1.2c0,0.6-0.2,1.2-0.5,1.6s-0.8,0.8-1.3,1L114.7,162.2L114.7,162.2z M112.2,155.9c0-0.3,0-0.5-0.1-0.7
	s-0.2-0.4-0.4-0.5s-0.4-0.2-0.6-0.2s-0.5-0.1-0.8-0.1h-1.2v3.3h1c0.3,0,0.6,0,0.9-0.1s0.5-0.2,0.7-0.4s0.3-0.4,0.4-0.6
	C112.1,156.4,112.2,156.2,112.2,155.9L112.2,155.9z M120,162.3c-0.6,0-1.2-0.1-1.6-0.2c-0.4-0.1-0.9-0.3-1.3-0.5v-1.4h0.1
	c0.4,0.4,0.8,0.6,1.3,0.8s1,0.3,1.4,0.3c0.6,0,1.1-0.1,1.5-0.4c0.3-0.3,0.5-0.6,0.5-1.1c0-0.4-0.1-0.6-0.3-0.9
	c-0.2-0.2-0.4-0.4-0.8-0.5c-0.3-0.1-0.5-0.1-0.7-0.2s-0.5-0.1-0.8-0.2s-0.6-0.2-0.8-0.3c-0.2-0.1-0.5-0.3-0.6-0.5
	c-0.2-0.2-0.3-0.4-0.4-0.7s-0.2-0.6-0.2-0.9c0-0.7,0.3-1.3,0.8-1.8c0.6-0.5,1.3-0.7,2.1-0.7c0.5,0,1,0,1.4,0.1s0.8,0.2,1.2,0.4v1.4
	h-0.1c-0.3-0.3-0.6-0.5-1.1-0.7c-0.4-0.2-0.9-0.3-1.4-0.3s-1,0.1-1.3,0.4s-0.5,0.6-0.5,1s0.1,0.7,0.3,0.9c0.2,0.2,0.5,0.4,0.9,0.5
	c0.2,0.1,0.5,0.1,0.9,0.2s0.7,0.2,0.9,0.2c0.6,0.2,1,0.5,1.3,0.8c0.3,0.4,0.4,0.8,0.4,1.4c0,0.3-0.1,0.7-0.2,1s-0.3,0.6-0.6,0.8
	c-0.3,0.3-0.6,0.5-1,0.6C120.9,162.3,120.5,162.3,120,162.3L120,162.3z M129.4,162.2H126v-0.9h1.1v-7H126v-0.9h3.4v0.9h-1.1v7h1.1
	V162.2L129.4,162.2z M135,162.2v-7.7h-3v-1h7.1v1h-3v7.7H135L135,162.2z M141.1,162.2l3-8.8h1.4l3,8.8h-1.2l-0.8-2.5h-3.4l-0.8,2.5
	H141.1L141.1,162.2z M146.2,158.7l-1.4-4.1l-1.4,4.1H146.2L146.2,158.7z M146.3,150.1l-1.6,2.2h-0.9l1.1-2.2H146.3L146.3,150.1z
	 M158.2,162.2h-1.5l-2.8-3.5h-1.3v3.5h-1.2v-8.8h2.3c0.5,0,0.9,0,1.3,0.1c0.3,0.1,0.7,0.2,1,0.4s0.5,0.5,0.7,0.8s0.3,0.7,0.3,1.2
	c0,0.6-0.2,1.2-0.5,1.6s-0.8,0.8-1.3,1L158.2,162.2L158.2,162.2z M155.7,155.9c0-0.3,0-0.5-0.1-0.7s-0.2-0.4-0.4-0.5
	s-0.4-0.2-0.6-0.2c-0.2,0-0.5-0.1-0.8-0.1h-1.2v3.3h1c0.3,0,0.6,0,0.9-0.1c0.3-0.1,0.5-0.2,0.7-0.4s0.3-0.4,0.4-0.6
	C155.7,156.4,155.7,156.2,155.7,155.9L155.7,155.9z M164.1,162.2h-3.4v-0.9h1.1v-7h-1.1v-0.9h3.4v0.9H163v7h1.1V162.2L164.1,162.2z
	 M173.9,154.4c0.3,0.4,0.6,0.9,0.8,1.4c0.2,0.6,0.3,1.2,0.3,2c0,0.7-0.1,1.4-0.3,1.9c-0.2,0.6-0.4,1.1-0.8,1.4
	c-0.4,0.4-0.8,0.7-1.3,0.9s-1,0.3-1.6,0.3s-1.1-0.1-1.6-0.3s-0.9-0.5-1.2-0.9s-0.6-0.9-0.8-1.4c-0.2-0.6-0.3-1.2-0.3-1.9
	s0.1-1.4,0.3-1.9c0.2-0.6,0.4-1,0.8-1.4c0.3-0.4,0.7-0.7,1.2-0.9s1-0.3,1.6-0.3s1.1,0.1,1.6,0.3C173.1,153.7,173.5,154,173.9,154.4
	L173.9,154.4z M173.7,157.8c0-0.6-0.1-1.1-0.2-1.5c-0.1-0.4-0.3-0.8-0.5-1.1s-0.5-0.5-0.8-0.7s-0.7-0.2-1.1-0.2
	c-0.4,0-0.8,0.1-1.1,0.2s-0.6,0.4-0.8,0.7s-0.4,0.7-0.5,1.1c-0.1,0.5-0.2,1-0.2,1.5c0,1.2,0.2,2,0.7,2.6s1.1,0.9,1.9,0.9
	c0.8,0,1.5-0.3,1.9-0.9C173.5,159.8,173.7,159,173.7,157.8L173.7,157.8z"/>
<path class="st0" d="M26,175h-2.7l-2.4-3.2H20v3.2h-2.2v-8.8h3.5c0.5,0,0.9,0,1.3,0.1s0.7,0.2,1,0.4s0.6,0.5,0.7,0.8
	c0.2,0.3,0.3,0.7,0.3,1.2c0,0.7-0.2,1.2-0.5,1.6s-0.7,0.8-1.2,1L26,175L26,175z M22.4,168.9c0-0.2,0-0.4-0.1-0.6s-0.2-0.3-0.4-0.4
	c-0.1-0.1-0.3-0.1-0.5-0.1s-0.4,0-0.6,0H20v2.4h0.6c0.3,0,0.6,0,0.8-0.1c0.2,0,0.4-0.1,0.5-0.2s0.2-0.2,0.3-0.4
	C22.4,169.4,22.4,169.2,22.4,168.9L22.4,168.9z M30.3,175h-2.1v-6.6h2.1V175L30.3,175z M30.4,167.5h-2.2v-1.6h2.2V167.5L30.4,167.5z
	 M38,171.7c0-0.7-0.1-1.1-0.3-1.4c-0.2-0.3-0.5-0.4-0.9-0.4c-0.2,0-0.4,0-0.6,0.1s-0.4,0.1-0.5,0.3v3.3c0.1,0.1,0.3,0.1,0.4,0.1
	s0.3,0,0.4,0c0.5,0,0.9-0.2,1.1-0.5C37.9,172.8,38,172.3,38,171.7L38,171.7z M40.1,171.6c0,1.1-0.3,1.9-0.8,2.6s-1.2,1-2,1
	c-0.3,0-0.6,0-0.9-0.1c-0.2-0.1-0.5-0.2-0.8-0.3l-0.1,0.3h-2v-9.2h2.1v3.2c0.3-0.3,0.6-0.5,0.9-0.6c0.3-0.2,0.7-0.2,1.1-0.2
	c0.8,0,1.4,0.3,1.8,0.9C39.9,169.7,40.1,170.6,40.1,171.6L40.1,171.6z M46.4,175.2c-1.3,0-2.2-0.3-2.9-0.9c-0.7-0.6-1-1.5-1-2.6
	s0.3-1.9,0.9-2.6c0.6-0.6,1.5-1,2.6-1c1,0,1.8,0.3,2.3,0.8s0.8,1.3,0.8,2.4v0.7h-4.5c0,0.3,0.1,0.6,0.2,0.8c0.1,0.2,0.3,0.4,0.4,0.5
	c0.2,0.1,0.4,0.2,0.6,0.3c0.2,0.1,0.5,0.1,0.8,0.1c0.2,0,0.5,0,0.7-0.1s0.4-0.1,0.6-0.2s0.3-0.2,0.5-0.2c0.1-0.1,0.3-0.2,0.4-0.2H49
	v1.7c-0.2,0.1-0.3,0.1-0.5,0.2c-0.1,0.1-0.3,0.1-0.6,0.2c-0.2,0.1-0.5,0.1-0.7,0.1C47.1,175.2,46.8,175.2,46.4,175.2L46.4,175.2z
	 M47.1,170.9c0-0.4-0.1-0.8-0.3-1s-0.5-0.3-0.9-0.3s-0.7,0.1-0.9,0.4c-0.2,0.2-0.4,0.6-0.4,1L47.1,170.9
	C47.1,171,47.1,170.9,47.1,170.9z M54,175h-2.1v-6.6H54V175L54,175z M54.1,167.5h-2.2v-1.6h2.2V167.5L54.1,167.5z M61.8,170.3h-0.2
	c-0.1,0-0.2,0-0.3-0.1c-0.1,0-0.3,0-0.5,0s-0.4,0-0.7,0.1c-0.2,0.1-0.5,0.1-0.7,0.2v4.4h-2.1v-6.6h2.1v0.9c0.1-0.1,0.2-0.2,0.4-0.3
	s0.3-0.2,0.5-0.3c0.1-0.1,0.3-0.2,0.5-0.2c0.2-0.1,0.4-0.1,0.6-0.1c0.1,0,0.1,0,0.2,0s0.2,0,0.2,0V170.3L61.8,170.3z M68,173.3v-1.4
	c-0.4,0-0.6,0.1-0.8,0.1c-0.2,0-0.4,0.1-0.6,0.2s-0.3,0.2-0.4,0.3S66,172.8,66,173c0,0.3,0.1,0.5,0.3,0.6c0.2,0.1,0.4,0.2,0.7,0.2
	c0.2,0,0.4,0,0.6-0.1C67.7,173.6,67.8,173.4,68,173.3L68,173.3z M68,174.3c-0.1,0.1-0.3,0.2-0.4,0.3s-0.3,0.2-0.5,0.3
	s-0.4,0.2-0.5,0.2c-0.2,0-0.4,0.1-0.7,0.1c-0.6,0-1.1-0.2-1.5-0.6s-0.6-0.9-0.6-1.5c0-0.5,0.1-0.9,0.3-1.2c0.2-0.3,0.5-0.5,0.8-0.7
	c0.4-0.2,0.8-0.3,1.3-0.4s1.1-0.1,1.7-0.2l0,0c0-0.4-0.1-0.6-0.4-0.8c-0.3-0.1-0.7-0.2-1.2-0.2c-0.2,0-0.5,0-0.9,0.1
	c-0.3,0.1-0.6,0.2-1,0.3h-0.2v-1.6c0.2-0.1,0.5-0.1,1-0.2s0.9-0.1,1.4-0.1c1.1,0,2,0.2,2.5,0.6s0.8,1,0.8,1.7v4.5H68V174.3L68,174.3
	z M69.7,165.5c0,0.7-0.2,1.1-0.5,1.4s-0.7,0.5-1.2,0.5c-0.2,0-0.4,0-0.5-0.1c-0.2-0.1-0.3-0.2-0.4-0.2c-0.1-0.1-0.2-0.2-0.4-0.2
	c-0.1-0.1-0.3-0.1-0.4-0.1c-0.2,0-0.3,0.1-0.4,0.2s-0.1,0.3-0.1,0.5h-1.2c0-0.6,0.2-1,0.5-1.4c0.3-0.3,0.7-0.5,1.2-0.5
	c0.2,0,0.4,0,0.5,0.1c0.2,0.1,0.3,0.1,0.5,0.2c0.1,0.1,0.2,0.1,0.4,0.2c0.1,0.1,0.3,0.1,0.3,0.1c0.2,0,0.3-0.1,0.4-0.2
	s0.1-0.3,0.1-0.5H69.7L69.7,165.5z M79.7,171.7c0,1.1-0.3,2-0.9,2.6s-1.4,0.9-2.5,0.9s-1.9-0.3-2.5-0.9s-0.9-1.5-0.9-2.6
	s0.3-2,0.9-2.6s1.4-0.9,2.5-0.9s1.9,0.3,2.5,0.9C79.4,169.8,79.7,170.6,79.7,171.7L79.7,171.7z M77.6,171.7c0-0.4,0-0.7-0.1-1
	s-0.2-0.5-0.3-0.6c-0.1-0.2-0.3-0.3-0.4-0.3c-0.2-0.1-0.3-0.1-0.5-0.1s-0.4,0-0.5,0.1s-0.3,0.2-0.4,0.3c-0.1,0.2-0.2,0.4-0.3,0.6
	c-0.1,0.3-0.1,0.6-0.1,1s0,0.7,0.1,1c0.1,0.2,0.2,0.4,0.3,0.6c0.1,0.2,0.2,0.3,0.4,0.3c0.2,0.1,0.3,0.1,0.5,0.1s0.3,0,0.5-0.1
	s0.3-0.2,0.4-0.3c0.1-0.2,0.2-0.4,0.3-0.6C77.5,172.5,77.6,172.1,77.6,171.7L77.6,171.7z M92.9,169c0,0.4-0.1,0.8-0.2,1.2
	s-0.3,0.7-0.6,0.9c-0.1,0.2-0.3,0.3-0.5,0.4s-0.4,0.2-0.6,0.3s-0.5,0.2-0.7,0.2c-0.3,0.1-0.5,0.1-0.9,0.1h-1.2v2.9H86v-8.8h3.4
	c0.5,0,0.9,0,1.3,0.1s0.7,0.2,1,0.4s0.6,0.5,0.8,0.9C92.8,168.1,92.9,168.5,92.9,169L92.9,169z M90.7,169.1c0-0.2-0.1-0.5-0.2-0.6
	c-0.1-0.2-0.3-0.3-0.4-0.4c-0.2-0.1-0.4-0.1-0.6-0.2c-0.2,0-0.4,0-0.8,0h-0.3v2.6h0.2c0.2,0,0.4,0,0.6,0s0.3,0,0.5,0
	c0.1,0,0.2-0.1,0.4-0.1c0.1-0.1,0.2-0.1,0.3-0.2s0.2-0.3,0.3-0.5C90.6,169.5,90.7,169.3,90.7,169.1L90.7,169.1z M100.2,170.3H100
	c-0.1,0-0.2,0-0.3-0.1c-0.1,0-0.3,0-0.5,0s-0.4,0-0.7,0.1c-0.2,0.1-0.5,0.1-0.7,0.2v4.4h-2.1v-6.6h2.1v0.9c0.1-0.1,0.2-0.2,0.4-0.3
	c0.2-0.1,0.3-0.2,0.5-0.3c0.1-0.1,0.3-0.2,0.5-0.2c0.2-0.1,0.4-0.1,0.6-0.1c0.1,0,0.1,0,0.2,0s0.2,0,0.2,0V170.3L100.2,170.3z
	 M106.1,175.2c-1.3,0-2.2-0.3-2.9-0.9s-1-1.5-1-2.6s0.3-1.9,0.9-2.6c0.6-0.6,1.5-1,2.6-1c1,0,1.8,0.3,2.3,0.8s0.8,1.3,0.8,2.4v0.7
	h-4.5c0,0.3,0.1,0.6,0.2,0.8s0.3,0.4,0.4,0.5c0.2,0.1,0.4,0.2,0.6,0.3s0.5,0.1,0.8,0.1c0.2,0,0.5,0,0.7-0.1s0.4-0.1,0.6-0.2
	c0.2-0.1,0.3-0.2,0.5-0.2c0.1-0.1,0.3-0.2,0.4-0.2h0.2v1.7c-0.2,0.1-0.3,0.1-0.5,0.2c-0.1,0.1-0.3,0.1-0.6,0.2
	c-0.2,0.1-0.5,0.1-0.7,0.1C106.8,175.2,106.5,175.2,106.1,175.2L106.1,175.2z M106.8,170.9c0-0.4-0.1-0.8-0.3-1s-0.5-0.3-0.9-0.3
	s-0.7,0.1-0.9,0.4c-0.2,0.2-0.4,0.6-0.4,1L106.8,170.9C106.8,171,106.8,170.9,106.8,170.9z M114.2,175.2c-0.8,0-1.5-0.2-1.8-0.5
	c-0.4-0.3-0.6-0.9-0.6-1.7v-3.1H111v-1.4h0.8v-1.9h2.1v1.9h2v1.4h-2v2.3c0,0.2,0,0.4,0,0.6s0,0.3,0.1,0.5c0.1,0.1,0.2,0.2,0.3,0.3
	c0.1,0.1,0.3,0.1,0.6,0.1c0.1,0,0.3,0,0.4-0.1c0.2,0,0.3-0.1,0.4-0.1h0.2v1.5c-0.2,0.1-0.5,0.1-0.7,0.1
	C114.9,175.1,114.6,175.2,114.2,175.2L114.2,175.2z M124.8,171.7c0,1.1-0.3,2-0.9,2.6s-1.4,0.9-2.5,0.9s-1.9-0.3-2.5-0.9
	s-0.9-1.5-0.9-2.6s0.3-2,0.9-2.6s1.4-0.9,2.5-0.9s1.9,0.3,2.5,0.9C124.5,169.8,124.8,170.6,124.8,171.7L124.8,171.7z M122.7,171.7
	c0-0.4,0-0.7-0.1-1s-0.2-0.5-0.3-0.6c-0.1-0.2-0.3-0.3-0.4-0.3c-0.2-0.1-0.3-0.1-0.5-0.1s-0.4,0-0.5,0.1s-0.3,0.2-0.4,0.3
	c-0.1,0.2-0.2,0.4-0.3,0.6c-0.1,0.3-0.1,0.6-0.1,1s0,0.7,0.1,1c0.1,0.2,0.2,0.4,0.3,0.6s0.2,0.3,0.4,0.3c0.2,0.1,0.3,0.1,0.5,0.1
	s0.3,0,0.5-0.1s0.3-0.2,0.4-0.3c0.1-0.2,0.2-0.4,0.3-0.6C122.6,172.5,122.7,172.1,122.7,171.7L122.7,171.7z M134.9,172H131v-1.6h3.9
	V172L134.9,172z M144.5,175.2c-0.7,0-1.3-0.1-1.8-0.2s-1-0.3-1.4-0.5v-2.1h0.2c0.4,0.4,0.9,0.7,1.5,0.9c0.5,0.2,1,0.3,1.5,0.3
	c0.1,0,0.3,0,0.5,0s0.4-0.1,0.5-0.1c0.2-0.1,0.3-0.2,0.4-0.3c0.1-0.1,0.2-0.3,0.2-0.5s-0.1-0.4-0.3-0.5s-0.4-0.2-0.6-0.3
	c-0.3-0.1-0.6-0.2-1-0.2c-0.3-0.1-0.7-0.2-1-0.3c-0.7-0.2-1.2-0.6-1.5-1s-0.4-0.9-0.4-1.5c0-0.8,0.3-1.5,1-2s1.6-0.8,2.6-0.8
	c0.5,0,1,0.1,1.6,0.2c0.5,0.1,1,0.2,1.4,0.4v2h-0.2c-0.3-0.3-0.7-0.5-1.2-0.7s-1-0.3-1.5-0.3c-0.2,0-0.4,0-0.5,0
	c-0.2,0-0.3,0.1-0.5,0.2c-0.1,0.1-0.3,0.2-0.4,0.3c-0.1,0.1-0.2,0.3-0.2,0.4c0,0.2,0.1,0.4,0.2,0.5c0.2,0.1,0.5,0.3,0.9,0.4
	c0.3,0.1,0.6,0.1,0.9,0.2c0.3,0.1,0.6,0.1,0.9,0.3c0.6,0.2,1.1,0.5,1.4,0.9c0.3,0.4,0.4,0.9,0.4,1.5c0,0.9-0.3,1.6-1,2.1
	C146.6,174.9,145.7,175.2,144.5,175.2L144.5,175.2z M157.9,169c0,0.4-0.1,0.8-0.2,1.2c-0.1,0.4-0.3,0.7-0.6,0.9
	c-0.1,0.2-0.3,0.3-0.5,0.4s-0.4,0.2-0.6,0.3c-0.2,0.1-0.5,0.2-0.7,0.2c-0.3,0.1-0.5,0.1-0.9,0.1h-1.2v2.9H151v-8.8h3.4
	c0.5,0,0.9,0,1.3,0.1c0.4,0.1,0.7,0.2,1,0.4s0.6,0.5,0.8,0.9C157.9,168.1,157.9,168.5,157.9,169L157.9,169z M155.7,169.1
	c0-0.2-0.1-0.5-0.2-0.6c-0.1-0.2-0.3-0.3-0.4-0.4c-0.2-0.1-0.4-0.1-0.6-0.2c-0.2,0-0.4,0-0.8,0h-0.3v2.6h0.2c0.2,0,0.4,0,0.6,0
	c0.2,0,0.3,0,0.5,0c0.1,0,0.2-0.1,0.4-0.1c0.1-0.1,0.2-0.1,0.3-0.2s0.2-0.3,0.3-0.5C155.6,169.5,155.7,169.3,155.7,169.1
	L155.7,169.1z"/>
<g>
	<path class="st0" d="M82,35.6v-12H72v23.9c-0.2,1.9,0.1,3.9,1.1,6c2.9,5.1,7.2,8.3,13.7,8.7c9.3,0.2,17.3-4.4,17.5-14.4
		C103.5,38.1,93.1,32.1,82,35.6z M88.2,53.6c-3.3,0-6-2.3-6-5.2c0-2.9,2.7-5.2,6-5.2s6,2.3,6,5.2C94.2,51.3,91.5,53.6,88.2,53.6z"/>
</g>
</svg>
