<svg height="512.00003pt" viewBox="0 0 512.00003 512.00003" style="fill: #18e19c" width="512.00003pt" xmlns="http://www.w3.org/2000/svg"><path d="m196.265625 145.066406h119.46875c4.710937 0 8.53125-3.820312 8.53125-8.53125 0-4.714844-3.820313-8.535156-8.53125-8.535156h-119.46875c-4.710937 0-8.53125 3.820312-8.53125 8.535156 0 4.710938 3.820313 8.53125 8.53125 8.53125zm0 0"/><path d="m486.398438 85.332031h-110.933594v-59.730469c0-14.140624-11.460938-25.601562-25.597656-25.601562h-187.734376c-14.136718 0-25.597656 11.460938-25.597656 25.601562v59.730469h-110.933594c-14.140624 0-25.601562 11.460938-25.601562 25.601563v375.464844c0 14.140624 11.460938 25.601562 25.601562 25.601562h460.796876c14.140624 0 25.601562-11.460938 25.601562-25.601562v-375.464844c0-14.140625-11.460938-25.601563-25.601562-25.601563zm-332.796876-59.730469c0-4.714843 3.820313-8.535156 8.53125-8.535156h187.734376c4.710937 0 8.53125 3.820313 8.53125 8.535156v59.730469h-204.796876zm-128 76.796876h460.796876c4.714843 0 8.535156 3.820312 8.535156 8.535156v76.800781h-42.667969v-42.667969c0-14.136718-11.460937-25.601562-25.597656-25.601562h-51.203125c-14.136719 0-25.597656 11.464844-25.597656 25.601562v42.667969h-187.734376v-42.667969c0-14.136718-11.460937-25.601562-25.597656-25.601562h-51.203125c-14.136719 0-25.597656 11.464844-25.597656 25.601562v42.667969h-42.667969v-76.800781c0-4.714844 3.820313-8.535156 8.535156-8.535156zm341.332032 42.667968c0-4.710937 3.820312-8.53125 8.53125-8.53125h51.203125c4.710937 0 8.53125 3.820313 8.53125 8.53125v93.867188c0 18.851562-15.28125 34.132812-34.132813 34.132812-18.851562 0-34.132812-15.28125-34.132812-34.132812zm-290.132813 0c0-4.710937 3.820313-8.53125 8.53125-8.53125h51.203125c4.710938 0 8.53125 3.820313 8.53125 8.53125v93.867188c0 18.851562-15.28125 34.132812-34.132812 34.132812-18.851563 0-34.132813-15.28125-34.132813-34.132812zm409.597657 349.867188h-460.796876c-4.714843 0-8.535156-3.820313-8.535156-8.535156v-281.597657h42.667969v34.132813c0 28.277344 22.921875 51.199218 51.199219 51.199218s51.199218-22.921874 51.199218-51.199218v-34.132813h187.734376v34.132813c0 28.277344 22.921874 51.199218 51.199218 51.199218s51.199219-22.921874 51.199219-51.199218v-34.132813h42.667969v281.597657c0 4.714843-3.820313 8.535156-8.535156 8.535156zm0 0"/><path d="m332.800781 324.265625h-34.132812v-34.132813c0-9.425781-7.640625-17.066406-17.066407-17.066406h-51.203124c-9.425782 0-17.066407 7.640625-17.066407 17.066406v34.132813h-34.132812c-9.425781 0-17.066407 7.640625-17.066407 17.066406v51.203125c0 9.425782 7.640626 17.066406 17.066407 17.066406h34.132812v34.132813c0 9.425781 7.640625 17.066406 17.066407 17.066406h51.203124c9.425782 0 17.066407-7.640625 17.066407-17.066406v-34.132813h34.132812c9.425781 0 17.066407-7.640624 17.066407-17.066406v-51.203125c0-9.425781-7.640626-17.066406-17.066407-17.066406zm0 68.269531h-42.667969c-4.710937 0-8.53125 3.820313-8.53125 8.53125v42.667969h-51.203124v-42.667969c0-4.710937-3.820313-8.53125-8.53125-8.53125h-42.667969v-51.203125h42.667969c4.710937 0 8.53125-3.820312 8.53125-8.53125v-42.667969h51.203124v42.667969c0 4.710938 3.820313 8.53125 8.53125 8.53125h42.667969zm0 0"/><path d="m102.398438 247.464844h17.066406c4.714844 0 8.535156-3.820313 8.535156-8.53125 0-4.714844-3.820312-8.535156-8.535156-8.535156h-17.066406c-4.710938 0-8.53125 3.820312-8.53125 8.535156 0 4.710937 3.820312 8.53125 8.53125 8.53125zm0 0"/><path d="m392.535156 247.464844h17.066406c4.710938 0 8.53125-3.820313 8.53125-8.53125 0-4.714844-3.820312-8.535156-8.53125-8.535156h-17.066406c-4.714844 0-8.535156 3.820312-8.535156 8.535156 0 4.710937 3.820312 8.53125 8.535156 8.53125zm0 0"/><path d="m102.398438 170.667969h17.066406c4.714844 0 8.535156-3.820313 8.535156-8.535157 0-4.710937-3.820312-8.53125-8.535156-8.53125h-17.066406c-4.710938 0-8.53125 3.820313-8.53125 8.53125 0 4.714844 3.820312 8.535157 8.53125 8.535157zm0 0"/><path d="m392.535156 170.667969h17.066406c4.710938 0 8.53125-3.820313 8.53125-8.535157 0-4.710937-3.820312-8.53125-8.53125-8.53125h-17.066406c-4.714844 0-8.535156 3.820313-8.535156 8.53125 0 4.714844 3.820312 8.535157 8.535156 8.535157zm0 0"/></svg>