<?xml version="1.0" encoding="iso-8859-1"?>
<!-- Generator: Adobe Illustrator 19.0.0, SVG Export Plug-In . SVG Version: 6.00 Build 0)  -->
<svg version="1.1" id="Capa_1" xmlns="http://www.w3.org/2000/svg" xmlns:xlink="http://www.w3.org/1999/xlink" x="0px" y="0px"
	 viewBox="0 0 511.999 511.999" style="enable-background:new 0 0 511.999 511.999;fill: #18e19c" xml:space="preserve">
<g>
	<g>
		<path d="M507.218,335.261l-43.046-68.662c-0.089-0.143-0.183-0.282-0.278-0.421c-4.616-6.602-11.731-10.945-19.583-12.142
			c4.913-7.212,7.792-15.918,7.792-25.285c0-24.818-20.19-45.007-45.007-45.007c-24.818,0-45.007,20.19-45.007,45.007
			c0,9.367,2.878,18.073,7.792,25.286c-7.841,1.197-14.952,5.536-19.576,12.131c-0.439,0.625-0.804,1.298-1.09,2.006l-3.805,9.428
			l-40.513-17.802c-0.213-0.093-0.428-0.179-0.647-0.257c-3.533-1.269-7.211-1.782-10.85-1.561
			c-0.507-5.335-2.363-10.426-5.473-14.868l-21.478-30.681c-3.183-4.541-9.44-5.647-13.983-2.467
			c-4.542,3.181-5.646,9.44-2.467,13.983l21.482,30.683c1.307,1.866,1.998,4.052,1.998,6.318c0,3.608-1.763,6.998-4.713,9.064
			c-4.993,3.495-11.892,2.276-15.385-2.714l-45.961-65.639c-2.513-3.589-7.068-5.133-11.242-3.817
			c-4.18,1.318-7.021,5.193-7.021,9.575v118.176v129.018h-32.347V325.595c0-5.544-4.495-10.04-10.04-10.04s-10.04,4.496-10.04,10.04
			v129.018h-32.357V325.595V207.439c0-4.381-2.842-8.258-7.021-9.575c-4.178-1.317-8.729,0.227-11.243,3.816l-45.952,65.621
			c-2.065,2.95-5.452,4.712-9.063,4.712c-2.266,0-4.452-0.691-6.315-1.996c-4.99-3.498-6.211-10.401-2.72-15.387l73.453-104.915
			c2.538-3.617,6.683-5.777,11.088-5.777h80.336c4.404,0,8.55,2.16,11.082,5.768l19.715,28.16c3.18,4.541,9.44,5.646,13.982,2.467
			c4.542-3.181,5.646-9.44,2.467-13.983l-19.722-28.17c-6.017-8.573-15.688-13.831-26.086-14.277
			c7.315-9.128,11.704-20.695,11.704-33.274c0-29.401-23.915-53.32-53.31-53.32c-29.401,0-53.32,23.919-53.32,53.32
			c0,12.58,4.39,24.147,11.707,33.275c-10.396,0.45-20.063,5.706-26.085,14.286L5.612,243.115
			c-9.835,14.05-6.407,33.494,7.647,43.348c5.261,3.682,11.429,5.629,17.836,5.629c10.157,0,19.695-4.964,25.511-13.276
			l27.688-39.539v86.317v139.058c0,5.544,4.495,10.04,10.04,10.04h52.437h52.427c5.545,0,10.04-4.496,10.04-10.04V325.594V239.26
			l27.696,39.555c7.289,10.413,19.845,14.987,31.583,12.664c2.04,8.582,8.176,15.821,16.584,19.112l69.126,36.532v39.503v78.026
			c0,5.544,4.496,10.04,10.04,10.04h42.829h42.819c5.544,0,10.04-4.496,10.04-10.04v-78.027v-24.565l1.924,3.417
			c0.161,0.285,0.334,0.562,0.523,0.829c4.174,5.968,10.424,9.95,17.596,11.215c7.179,1.268,14.412-0.341,20.359-4.511
			c7.291-5.089,11.643-13.444,11.643-22.348C511.999,345.134,510.347,339.816,507.218,335.261z M146.771,57.387
			c18.323,0,33.231,14.913,33.231,33.241c0,18.323-14.908,33.231-33.231,33.231c-18.329,0-33.241-14.908-33.241-33.231
			C113.53,72.3,128.442,57.387,146.771,57.387z M407.096,203.825c13.745,0,24.928,11.183,24.928,24.928
			c0,13.75-11.183,24.938-24.928,24.938c-13.745,0-24.928-11.188-24.928-24.938C382.168,215.007,393.351,203.825,407.096,203.825z
			 M488.848,356.557c-1.569,1.101-3.472,1.527-5.362,1.191c-1.761-0.31-3.31-1.242-4.402-2.64l-20.419-36.266
			c-2.239-3.978-6.878-5.945-11.294-4.786c-4.414,1.157-7.493,5.147-7.493,9.711v62.858v67.988h-22.74v-67.988
			c0-5.544-4.496-10.04-10.04-10.04c-5.544,0-10.04,4.496-10.04,10.04v67.988h-22.75v-67.988v-62.878
			c0-5.494-4.414-9.966-9.907-10.039c-0.045-0.001-0.09-0.001-0.136-0.001c-5.43,0-9.89,4.329-10.033,9.774l-0.025,0.919
			l-60.284-31.857c-0.421-0.223-0.857-0.415-1.307-0.575c-2.846-1.019-4.759-3.737-4.759-6.762c0-0.829,0.141-1.636,0.424-2.423
			c0.649-1.807,1.963-3.254,3.702-4.075c1.652-0.781,3.495-0.905,5.224-0.355l49.6,21.797c2.488,1.092,5.309,1.131,7.824,0.106
			c2.516-1.024,4.509-3.023,5.526-5.541l7.17-17.762c1.739-2.009,4.279-3.184,6.962-3.184h65.618c2.934,0,5.689,1.398,7.414,3.748
			l43.011,68.608c0.093,0.149,0.19,0.295,0.291,0.439c1.072,1.527,1.298,3.072,1.298,4.098
			C491.922,353.011,490.779,355.209,488.848,356.557z"/>
	</g>
</g>
<g>
	<g>
		<path d="M239.928,185.723c-12.92,0-12.942,20.079,0,20.079C252.848,205.802,252.869,185.723,239.928,185.723z"/>
	</g>
</g>
<g>
</g>
<g>
</g>
<g>
</g>
<g>
</g>
<g>
</g>
<g>
</g>
<g>
</g>
<g>
</g>
<g>
</g>
<g>
</g>
<g>
</g>
<g>
</g>
<g>
</g>
<g>
</g>
<g>
</g>
</svg>
