<?xml version="1.0" encoding="iso-8859-1"?>
<!-- Generator: Adobe Illustrator 19.0.0, SVG Export Plug-In . SVG Version: 6.00 Build 0)  -->
<svg version="1.1" id="Capa_1" xmlns="http://www.w3.org/2000/svg" xmlns:xlink="http://www.w3.org/1999/xlink" x="0px" y="0px"
	 viewBox="0 0 512 512" style="enable-background:new 0 0 512 512;fill: #18e19c" xml:space="preserve">
<g>
	<g>
		<path d="M498.812,239.484c11.962-11.659,16.186-28.77,11.024-44.656c-5.162-15.887-18.637-27.247-35.167-29.649l-109.352-15.89
			c-9.237-1.342-17.219-7.141-21.349-15.511l-48.904-99.089c-7.392-14.979-22.36-24.284-39.064-24.284
			c-16.703,0-31.673,9.305-39.065,24.284l-48.903,99.089c-4.132,8.371-12.112,14.169-21.349,15.511l-109.352,15.89
			c-16.53,2.402-30.005,13.763-35.167,29.648c-5.161,15.887-0.937,32.997,11.024,44.657l79.128,77.13
			c6.684,6.515,9.732,15.898,8.155,25.097l-4.905,28.597c-0.71,4.14,2.069,8.071,6.209,8.78c4.141,0.71,8.07-2.07,8.78-6.209
			l4.905-28.597c2.424-14.135-2.26-28.549-12.529-38.559l-79.128-77.13c-7.904-7.703-10.586-18.569-7.175-29.066
			c3.411-10.497,11.968-17.711,22.89-19.297l109.35-15.89c14.191-2.062,26.453-10.97,32.8-23.83L230.57,41.42
			c4.885-9.897,14.39-15.805,25.427-15.805s20.542,5.909,25.426,15.805l48.904,99.089c6.347,12.859,18.609,21.768,32.8,23.83
			l109.352,15.89c10.922,1.587,19.479,8.802,22.89,19.298c3.41,10.497,0.728,21.363-7.175,29.066l-79.128,77.13
			c-10.269,10.01-14.953,24.425-12.529,38.559l18.68,108.91c1.866,10.878-2.351,21.246-11.281,27.733
			c-8.928,6.488-20.091,7.295-29.861,2.159l-97.807-51.42c-12.693-6.673-27.848-6.673-40.543,0l-97.807,51.42
			c-9.769,5.136-20.933,4.329-29.861-2.159c-8.928-6.488-13.145-16.855-11.279-27.733l9.887-57.647
			c0.71-4.14-2.069-8.071-6.209-8.78c-4.142-0.709-8.071,2.07-8.78,6.209l-9.887,57.647c-2.824,16.464,3.817,32.789,17.33,42.608
			c13.512,9.817,31.092,11.089,45.877,3.315l97.807-51.42c8.263-4.342,18.128-4.342,26.389,0L367,496.545
			c6.432,3.381,13.389,5.05,20.313,5.05c8.993,0,17.929-2.819,25.566-8.366c13.513-9.818,20.154-26.144,17.33-42.608l-18.68-108.91
			c-1.579-9.201,1.47-18.583,8.154-25.098L498.812,239.484z"/>
	</g>
</g>
<g>
	<g>
		<path d="M256.003,48.854c-4.2,0-7.604,3.405-7.604,7.604v175.798c0,4.2,3.405,7.604,7.604,7.604s7.604-3.405,7.604-7.604V56.459
			C263.607,52.259,260.202,48.854,256.003,48.854z"/>
	</g>
</g>
<g>
	<g>
		<path d="M412.07,231.26c-1.267-4.004-5.538-6.222-9.545-4.955L299.748,258.84c-4.004,1.267-6.222,5.541-4.955,9.545
			c1.025,3.241,4.02,5.312,7.247,5.312c0.76,0,1.534-0.116,2.297-0.357l102.777-32.535
			C411.119,239.537,413.337,235.264,412.07,231.26z"/>
	</g>
</g>
<g>
	<g>
		<path d="M476.93,210.728c-1.267-4.004-5.54-6.222-9.545-4.955l-40.994,12.977c-4.004,1.267-6.222,5.541-4.955,9.545
			c1.025,3.241,4.02,5.312,7.247,5.312c0.759,0,1.533-0.115,2.297-0.357l40.993-12.977
			C475.979,219.005,478.197,214.732,476.93,210.728z"/>
	</g>
</g>
<g>
	<g>
		<path d="M210.33,258.405L42.674,205.328c-4.005-1.267-8.277,0.95-9.545,4.954c-1.267,4.004,0.951,8.277,4.955,9.545
			l167.656,53.077c0.764,0.242,1.537,0.357,2.297,0.357c3.226,0,6.221-2.071,7.247-5.311
			C216.552,263.946,214.334,259.672,210.33,258.405z"/>
	</g>
</g>
<g>
	<g>
		<path d="M395.029,458.763L291.501,316.657c-2.472-3.394-7.229-4.142-10.623-1.669c-3.395,2.473-4.142,7.229-1.669,10.624
			l103.528,142.107c1.488,2.043,3.804,3.127,6.152,3.127c1.552,0,3.12-0.473,4.471-1.458
			C396.755,466.914,397.502,462.158,395.029,458.763z"/>
	</g>
</g>
<g>
	<g>
		<path d="M230.387,315.992c-3.397-2.474-8.152-1.725-10.624,1.669L116.246,459.767c-2.473,3.394-1.726,8.151,1.669,10.623
			c1.352,0.984,2.919,1.458,4.471,1.458c2.348,0,4.665-1.084,6.152-3.127l103.518-142.107
			C234.529,323.221,233.781,318.464,230.387,315.992z"/>
	</g>
</g>
<g>
	<g>
		<path d="M254.962,252.783c-16.043,0-29.094,13.051-29.094,29.094s13.052,29.096,29.094,29.096
			c16.044,0,29.095-13.053,29.095-29.096C284.056,265.835,271.004,252.783,254.962,252.783z M254.962,295.764
			c-7.657,0-13.886-6.23-13.886-13.887c0-7.657,6.229-13.886,13.886-13.886c7.658,0,13.886,6.228,13.886,13.886
			C268.848,289.535,262.619,295.764,254.962,295.764z"/>
	</g>
</g>
<g>
</g>
<g>
</g>
<g>
</g>
<g>
</g>
<g>
</g>
<g>
</g>
<g>
</g>
<g>
</g>
<g>
</g>
<g>
</g>
<g>
</g>
<g>
</g>
<g>
</g>
<g>
</g>
<g>
</g>
</svg>
