<?xml version="1.0" encoding="utf-8"?>
<!-- Generator: Adobe Illustrator 21.0.2, SVG Export Plug-In . SVG Version: 6.00 Build 0)  -->
<svg version="1.1" id="Layer_1" xmlns="http://www.w3.org/2000/svg" xmlns:xlink="http://www.w3.org/1999/xlink" x="0px" y="0px"
	 viewBox="0 0 467.2 467.2" style="enable-background:new 0 0 467.2 467.2;fill: #18e19c" xml:space="preserve">
<g>
	<path d="M413.9,96.8H53.3c-6.4,0-11.6,5.2-11.6,11.6v213.2c0,6.4,5.2,11.5,11.6,11.5h360.6c6.4,0,11.5-5.2,11.5-11.5V108.3
		C425.5,102,420.3,96.8,413.9,96.8L413.9,96.8z M415.5,321.5c0,0.9-0.7,1.5-1.5,1.5H53.3c-0.9,0-1.6-0.7-1.6-1.5V108.3
		c0-0.9,0.7-1.6,1.6-1.6h360.6c0.9,0,1.5,0.7,1.5,1.6V321.5z"/>
	<path d="M459.7,340.6H448V102.8c0-15.8-12.8-28.6-28.6-28.6H47.8c-15.8,0-28.6,12.8-28.6,28.6v237.7H7.5c-4.1,0-7.5,3.4-7.5,7.5
		v20.6c0,13.4,10.9,24.3,24.3,24.3h418.7c13.4,0,24.3-10.9,24.3-24.3v-20.6C467.2,343.9,463.9,340.6,459.7,340.6z M34.2,102.8
		c0-7.5,6.1-13.6,13.6-13.6h371.6c7.5,0,13.6,6.1,13.6,13.6v237.7H34.2V102.8L34.2,102.8z M211.6,355.6h44v3.9
		c0,1.8-1.4,3.2-3.2,3.2h-37.6c-1.8,0-3.2-1.4-3.2-3.2L211.6,355.6L211.6,355.6z M452.2,368.7c0,5.1-4.2,9.3-9.3,9.3H24.3
		c-5.1,0-9.3-4.2-9.3-9.3v-13.1h11.7h174.9v3.9c0,7.3,5.9,13.2,13.2,13.2h37.6c7.3,0,13.2-5.9,13.2-13.2v-3.9h174.9h11.7
		L452.2,368.7L452.2,368.7z"/>
</g>
</svg>
