<svg viewBox="0 0 512 512" xmlns="http://www.w3.org/2000/svg" style="fill: #18e19c"><path d="m465.515625 372.242188c10.203125-10.761719 16.484375-25.277344 16.484375-41.242188 0-33.085938-26.914062-60-60-60s-60 26.914062-60 60c0 15.964844 6.28125 30.480469 16.484375 41.242188-5.621094 3.117187-10.875 6.820312-15.679687 11.023437l-91.804688-74.414063v-67.851562h76v-61c0-33.828125-19.003906-63.203125-47-78.671875 10.96875-11.253906 17-25.851563 17-41.328125 0-16.054688-6.476562-31.175781-18.234375-42.585938-11.574219-11.230468-26.761719-17.414062-42.765625-17.414062-33.085938 0-60 26.914062-60 60 0 15.964844 6.28125 30.480469 16.484375 41.242188-27.695313 15.363281-46.484375 44.90625-46.484375 78.757812v61h75v67.851562l-91.804688 74.414063c-4.804687-4.203125-10.058593-7.902344-15.679687-11.023437 10.203125-10.761719 16.484375-25.277344 16.484375-41.242188 0-33.085938-26.914062-60-60-60s-60 26.914062-60 60c0 15.964844 6.28125 30.480469 16.484375 41.242188-27.695313 15.363281-46.484375 44.90625-46.484375 78.757812v61h180v-61c0-16.183594-4.296875-31.382812-11.804688-44.515625l87.804688-71.175781 87.804688 71.175781c-7.507813 13.132813-11.804688 28.332031-11.804688 44.515625v61h180v-61c0-33.851562-18.789062-63.394531-46.484375-78.757812zm-239.515625-312.242188c0-16.542969 13.457031-30 30-30 16.804688 0 31 13.738281 31 30s-14.195312 30-31 30c-16.542969 0-30-13.457031-30-30zm-30 120c0-33.085938 26.914062-60 60-60 33.636719 0 61 26.914062 61 60v31h-121zm-136 151c0-16.542969 13.457031-30 30-30s30 13.457031 30 30-13.457031 30-30 30-30-13.457031-30-30zm90 151h-120v-31c0-33.085938 26.914062-60 60-60s60 26.914062 60 60zm242-151c0-16.542969 13.457031-30 30-30s30 13.457031 30 30-13.457031 30-30 30-30-13.457031-30-30zm90 151h-120v-31c0-33.085938 26.914062-60 60-60s60 26.914062 60 60zm0 0"/></svg>